<?xml version="1.0" encoding="UTF-8"?>
<!DOCTYPE svg PUBLIC "-//W3C//DTD SVG 1.1//EN" "http://www.w3.org/Graphics/SVG/1.1/DTD/svg11.dtd">
<svg xmlns="http://www.w3.org/2000/svg" version="1.1" width="587px" height="587px" style="shape-rendering:geometricPrecision; text-rendering:geometricPrecision; image-rendering:optimizeQuality; fill-rule:evenodd; clip-rule:evenodd" xmlns:xlink="http://www.w3.org/1999/xlink">
<g><path style="opacity:1" fill="#fefefe" d="M -0.5,-0.5 C 195.167,-0.5 390.833,-0.5 586.5,-0.5C 586.5,195.167 586.5,390.833 586.5,586.5C 390.833,586.5 195.167,586.5 -0.5,586.5C -0.5,390.833 -0.5,195.167 -0.5,-0.5 Z"/></g>
<g><path style="opacity:1" fill="#11161d" d="M 151.5,150.5 C 151.414,151.496 151.748,152.329 152.5,153C 157.821,156.328 163.154,159.662 168.5,163C 172.482,164.541 176.482,165.708 180.5,166.5C 181.525,168.201 183.025,169.535 185,170.5C 189.048,171.572 192.881,173.072 196.5,175C 196.167,175.333 195.833,175.667 195.5,176C 197.361,177.073 199.194,178.24 201,179.5C 210.506,182.494 220.006,185.161 229.5,187.5C 231.216,187.629 232.883,187.962 234.5,188.5C 234.247,190.827 234.914,192.827 236.5,194.5C 231.855,196.103 227.522,195.603 223.5,193C 218.433,192.994 214.1,191.327 210.5,188C 206.863,188.316 204.196,186.982 202.5,184C 199.5,183.667 196.5,183.333 193.5,183C 191.38,179.841 188.38,178.174 184.5,178C 177.183,172.009 168.849,168.509 159.5,167.5C 159.586,166.504 159.252,165.671 158.5,165C 156.779,164.261 155.113,163.427 153.5,162.5C 150.667,159.498 148.001,156.332 145.5,153C 142.243,152.545 139.909,150.879 138.5,148C 140.875,145.847 142.875,146.18 144.5,149C 146.866,149.44 149.199,149.94 151.5,150.5 Z"/></g>
<g><path style="opacity:1" fill="#151618" d="M 128.5,188.5 C 122.843,184.866 118.843,179.866 116.5,173.5C 117.825,172.047 118.658,172.381 119,174.5C 119.94,172.058 121.106,169.725 122.5,167.5C 126.623,175.121 132.289,181.288 139.5,186C 140.793,186.49 142.127,186.657 143.5,186.5C 143.88,189.792 142.547,192.125 139.5,193.5C 136.029,191.353 132.363,189.686 128.5,188.5 Z"/></g>
<g><path style="opacity:1" fill="#40d0c5" d="M 208.5,136.5 C 212.816,137.308 215.816,139.808 217.5,144C 219.134,144.494 220.801,144.66 222.5,144.5C 222.281,145.675 222.614,146.675 223.5,147.5C 228.633,149.567 233.3,152.4 237.5,156C 241.327,157.997 245.327,159.497 249.5,160.5C 253.118,162.137 256.451,164.137 259.5,166.5C 259.561,169.05 260.894,170.55 263.5,171C 262.833,172 262.167,173 261.5,174C 264.711,175.153 268.044,175.82 271.5,176C 272.167,177 272.833,178 273.5,179C 279.586,180.877 285.252,183.544 290.5,187C 289.328,187.419 288.328,188.085 287.5,189C 288.713,191.687 289.38,194.52 289.5,197.5C 290.5,197.5 291.5,197.5 292.5,197.5C 292.238,196.022 292.571,194.689 293.5,193.5C 294.052,195.003 294.052,196.669 293.5,198.5C 289.829,198.278 286.163,197.944 282.5,197.5C 278.85,198.387 275.183,199.053 271.5,199.5C 267.445,199.824 263.445,199.491 259.5,198.5C 257.563,196.96 256.396,194.96 256,192.5C 255.788,189.242 255.288,186.076 254.5,183C 250.5,182.333 246.5,182.333 242.5,183C 241.299,183.903 240.465,185.069 240,186.5C 238.745,185.789 237.579,184.956 236.5,184C 237.449,183.383 238.282,183.549 239,184.5C 241.074,181.209 240.908,178.043 238.5,175C 232.981,175.502 227.481,175.335 222,174.5C 218.612,176.366 218.779,177.699 222.5,178.5C 223.506,179.396 223.506,180.062 222.5,180.5C 218.401,178.623 214.401,176.623 210.5,174.5C 209.674,171.276 208.674,168.109 207.5,165C 207.645,163.774 207.978,162.607 208.5,161.5C 207.711,155.885 207.211,150.218 207,144.5C 205.933,143.809 204.766,143.309 203.5,143C 205.826,141.195 207.492,139.028 208.5,136.5 Z"/></g>
<g><path style="opacity:1" fill="#0b2327" d="M 297.5,188.5 C 284.829,181.165 272.162,173.831 259.5,166.5C 256.451,164.137 253.118,162.137 249.5,160.5C 246.319,158.408 243.319,156.075 240.5,153.5C 244.998,154.002 248.998,156.169 252.5,160C 256.295,161.731 259.962,163.731 263.5,166C 269.267,168.087 274.934,170.42 280.5,173C 282.473,173.495 284.473,173.662 286.5,173.5C 285.503,175.931 285.503,178.098 286.5,180C 289.017,182.251 292.017,183.084 295.5,182.5C 295.22,185.388 296.553,186.888 299.5,187C 298.584,187.278 297.918,187.778 297.5,188.5 Z"/></g>
<g><path style="opacity:1" fill="#c4fcfb" d="M 466.5,181.5 C 465.834,184.689 465.167,188.023 464.5,191.5C 463.817,191.863 463.15,192.196 462.5,192.5C 464.545,181.357 466.545,170.19 468.5,159C 467.308,155.07 464.641,153.736 460.5,155C 456.456,171.448 453.123,187.948 450.5,204.5C 451.305,186.653 454.305,169.32 459.5,152.5C 462.862,151.033 466.029,151.366 469,153.5C 469.667,158.167 469.667,162.833 469,167.5C 467.414,172.017 466.58,176.684 466.5,181.5 Z"/></g>
<g><path style="opacity:1" fill="#d6fcfc" d="M 425.5,141.5 C 425.559,139.278 426.725,138.278 429,138.5C 432.741,139.517 435.075,141.851 436,145.5C 438.116,166.81 439.449,188.143 440,209.5C 435.41,212.521 431.41,211.854 428,207.5C 423.727,186.421 422.061,165.088 423,143.5C 423.417,142.244 424.25,141.577 425.5,141.5 Z"/></g>
<g><path style="opacity:1" fill="#1bbdbf" d="M 425.5,159.5 C 425.5,156.833 425.5,154.167 425.5,151.5C 424.534,147.119 426.034,144.119 430,142.5C 430.945,142.905 431.612,143.572 432,144.5C 432.311,148.122 432.145,151.455 431.5,154.5C 431.482,156.373 431.982,156.706 433,155.5C 433.366,162.722 434.199,169.889 435.5,177C 434.261,181.317 434.761,185.484 437,189.5C 437.499,195.157 437.666,200.824 437.5,206.5C 435.833,206.5 434.167,206.5 432.5,206.5C 432.143,198.495 431.643,190.495 431,182.5C 428.85,176.44 427.683,170.107 427.5,163.5C 427.415,161.667 426.748,160.334 425.5,159.5 Z"/></g>
<g><path style="opacity:1" fill="#42b5b5" d="M 425.5,141.5 C 428.119,141.232 430.619,141.565 433,142.5C 436.493,164.417 438.326,186.417 438.5,208.5C 435.709,210.04 433.209,209.706 431,207.5C 428.838,191.539 427.005,175.539 425.5,159.5C 426.748,160.334 427.415,161.667 427.5,163.5C 427.683,170.107 428.85,176.44 431,182.5C 431.643,190.495 432.143,198.495 432.5,206.5C 434.167,206.5 435.833,206.5 437.5,206.5C 437.666,200.824 437.499,195.157 437,189.5C 434.761,185.484 434.261,181.317 435.5,177C 434.199,169.889 433.366,162.722 433,155.5C 431.982,156.706 431.482,156.373 431.5,154.5C 432.145,151.455 432.311,148.122 432,144.5C 431.612,143.572 430.945,142.905 430,142.5C 426.034,144.119 424.534,147.119 425.5,151.5C 424.3,148.302 424.3,144.969 425.5,141.5 Z"/></g>
<g><path style="opacity:1" fill="#42d3c7" d="M 123.5,143.5 C 125.36,144.939 127.027,146.605 128.5,148.5C 129.957,150.628 130.957,152.962 131.5,155.5C 133.591,155.318 135.591,155.652 137.5,156.5C 138.386,157.325 138.719,158.325 138.5,159.5C 144.059,159.71 148.059,162.377 150.5,167.5C 155.239,169.624 159.906,171.624 164.5,173.5C 165.986,176.85 166.653,180.184 166.5,183.5C 167.72,182.289 168.887,182.289 170,183.5C 169.491,178.745 170.824,178.745 174,183.5C 174.483,182.552 174.649,181.552 174.5,180.5C 176.288,180.215 177.955,180.548 179.5,181.5C 182.298,183.13 184.965,184.963 187.5,187C 191.211,187.175 194.878,187.675 198.5,188.5C 201.88,190.717 205.547,192.217 209.5,193C 209.167,193.333 208.833,193.667 208.5,194C 216.087,195.304 223.087,197.971 229.5,202C 232.5,202.333 235.5,202.667 238.5,203C 236.167,203.333 233.833,203.667 231.5,204C 232.5,204.333 233.5,204.667 234.5,205C 234.165,206.503 234.165,207.836 234.5,209C 231.106,209.752 227.773,209.585 224.5,208.5C 222.91,211.17 223.577,212.837 226.5,213.5C 221.44,214.387 216.273,214.054 211,212.5C 209.829,211.66 208.662,210.827 207.5,210C 207.833,209.667 208.167,209.333 208.5,209C 205.639,208.46 202.972,207.46 200.5,206C 198.382,201.066 195.382,200.066 191.5,203C 189.833,203.667 188.167,203.667 186.5,203C 176.85,199.032 167.183,195.032 157.5,191C 153.905,188.037 149.905,185.87 145.5,184.5C 144.893,184.624 144.56,184.957 144.5,185.5C 127.363,176.559 120.363,162.559 123.5,143.5 Z"/></g>
<g><path style="opacity:1" fill="#e2fcfb" d="M 481.5,211.5 C 481.632,217.015 479.298,221.015 474.5,223.5C 469.574,222 466.741,218.666 466,213.5C 465.311,212.643 464.478,211.977 463.5,211.5C 462.189,216.472 459.189,219.805 454.5,221.5C 448.683,219.509 446.517,215.509 448,209.5C 448.374,207.509 449.207,205.842 450.5,204.5C 450.105,208.185 449.938,211.852 450,215.5C 451.305,218.306 453.472,219.14 456.5,218C 457.893,216.829 458.727,215.329 459,213.5C 460.175,206.452 461.341,199.452 462.5,192.5C 463.15,192.196 463.817,191.863 464.5,191.5C 465.167,188.023 465.834,184.689 466.5,181.5C 466.838,183.854 467.338,186.187 468,188.5C 468.915,187.672 469.581,186.672 470,185.5C 471.031,186.7 471.865,188.034 472.5,189.5C 471.033,191.498 469.2,193.164 467,194.5C 466.362,195.609 465.862,196.775 465.5,198C 466.359,202.362 466.525,206.862 466,211.5C 467.262,206.639 469.429,201.973 472.5,197.5C 473.5,197.5 474.5,197.5 475.5,197.5C 476.59,192.906 477.757,188.239 479,183.5C 480.183,184.731 481.349,184.731 482.5,183.5C 484.08,179.088 486.913,175.755 491,173.5C 495.802,163.568 500.302,153.568 504.5,143.5C 507.103,142.438 509.77,142.272 512.5,143C 514.828,144.661 516.828,146.661 518.5,149C 517.731,152.243 516.731,155.41 515.5,158.5C 514.675,159.386 513.675,159.719 512.5,159.5C 512.849,163.064 512.183,166.398 510.5,169.5C 509.914,169.291 509.414,168.957 509,168.5C 508.037,171.283 506.87,173.95 505.5,176.5C 507.256,179.615 508.59,182.948 509.5,186.5C 513.145,185.344 516.478,183.678 519.5,181.5C 519.5,180.5 519.5,179.5 519.5,178.5C 524.538,177.448 528.538,178.948 531.5,183C 532.374,186.974 532.374,191.141 531.5,195.5C 529.712,195.215 528.045,195.548 526.5,196.5C 525.528,198.636 523.861,199.803 521.5,200C 513.171,209.495 504.505,218.662 495.5,227.5C 492.388,228.983 489.555,228.65 487,226.5C 486.333,223.167 486.333,219.833 487,216.5C 491.235,209.427 496.068,202.76 501.5,196.5C 500.726,195.289 499.893,195.289 499,196.5C 497.062,191.589 495.395,191.922 494,197.5C 492.693,198.772 491.193,199.772 489.5,200.5C 487.032,204.489 484.365,208.155 481.5,211.5 Z"/></g>
<g><path style="opacity:1" fill="#dcfdfc" d="M 407.5,207.5 C 405.71,205.208 404.21,202.541 403,199.5C 401.919,194.764 400.586,190.097 399,185.5C 398.502,180.481 398.668,175.481 399.5,170.5C 404.806,170.593 409.139,172.593 412.5,176.5C 416.854,188.623 420.187,200.957 422.5,213.5C 421.074,220.214 417.074,222.214 410.5,219.5C 408.652,215.772 407.652,211.772 407.5,207.5 Z"/></g>
<g><path style="opacity:1" fill="#d2faf9" d="M 369.5,174.5 C 365.572,172.646 362.906,173.812 361.5,178C 372.166,198.46 384.166,217.96 397.5,236.5C 399.801,236.016 401.801,235.016 403.5,233.5C 403.67,234.822 403.337,235.989 402.5,237C 399.007,238.004 395.841,237.504 393,235.5C 386.667,225.842 380.334,216.175 374,206.5C 373.667,204.5 373.333,202.5 373,200.5C 369.092,199.379 367.092,196.713 367,192.5C 362.232,187.531 360.232,181.531 361,174.5C 364.105,172.03 366.938,172.03 369.5,174.5 Z"/></g>
<g><path style="opacity:1" fill="#2fb7b6" d="M 481.5,211.5 C 480.275,212.937 479.275,214.604 478.5,216.5C 475.926,219.949 473.092,220.282 470,217.5C 469.333,215.833 469.333,214.167 470,212.5C 482.278,190.94 494.278,169.273 506,147.5C 508.925,144.941 511.925,144.941 515,147.5C 515.667,148.833 515.667,150.167 515,151.5C 504.048,171.748 492.882,191.748 481.5,211.5 Z"/></g>
<g><path style="opacity:1" fill="#44b2af" d="M 525.5,189.5 C 525.5,187.833 525.5,186.167 525.5,184.5C 524.178,184.33 523.011,184.663 522,185.5C 521.667,184.833 521.333,184.167 521,183.5C 511.442,195.403 501.442,207.07 491,218.5C 491.063,219.962 491.729,221.295 493,222.5C 497.363,219.439 500.529,215.439 502.5,210.5C 504.99,208.917 507.657,207.917 510.5,207.5C 505.502,214.331 499.669,220.331 493,225.5C 488.794,224.472 487.461,221.805 489,217.5C 499.039,205.947 509.206,194.447 519.5,183C 525.399,180.235 527.899,182.068 527,188.5C 526.617,189.056 526.117,189.389 525.5,189.5 Z"/></g>
<g><path style="opacity:1" fill="#31b7b3" d="M 369.5,174.5 C 370.167,175.5 370.833,176.5 371.5,177.5C 380.819,194.137 390.652,210.471 401,226.5C 402.411,228.65 403.245,230.984 403.5,233.5C 401.801,235.016 399.801,236.016 397.5,236.5C 384.166,217.96 372.166,198.46 361.5,178C 362.906,173.812 365.572,172.646 369.5,174.5 Z"/></g>
<g><path style="opacity:1" fill="#32bab4" d="M 407.5,207.5 C 405.535,198.144 402.869,188.977 399.5,180C 401.633,175.24 404.8,174.407 409,177.5C 413.136,189.408 416.969,201.408 420.5,213.5C 419.398,217.767 416.731,219.267 412.5,218C 410.912,214.372 409.246,210.872 407.5,207.5 Z"/></g>
<g><path style="opacity:1" fill="#1fc0ba" d="M 525.5,189.5 C 521.224,196.109 516.224,202.109 510.5,207.5C 507.657,207.917 504.99,208.917 502.5,210.5C 500.529,215.439 497.363,219.439 493,222.5C 491.729,221.295 491.063,219.962 491,218.5C 501.442,207.07 511.442,195.403 521,183.5C 521.333,184.167 521.667,184.833 522,185.5C 523.011,184.663 524.178,184.33 525.5,184.5C 525.5,186.167 525.5,187.833 525.5,189.5 Z"/></g>
<g><path style="opacity:1" fill="#3eb3b0" d="M 462.5,192.5 C 461.341,199.452 460.175,206.452 459,213.5C 458.727,215.329 457.893,216.829 456.5,218C 453.472,219.14 451.305,218.306 450,215.5C 449.938,211.852 450.105,208.185 450.5,204.5C 453.123,187.948 456.456,171.448 460.5,155C 464.641,153.736 467.308,155.07 468.5,159C 466.545,170.19 464.545,181.357 462.5,192.5 Z"/></g>
<g><path style="opacity:1" fill="#1ac0bc" d="M 461.5,156.5 C 462.833,156.5 464.167,156.5 465.5,156.5C 465.344,159.066 465.678,161.566 466.5,164C 463.047,180.099 460.047,196.266 457.5,212.5C 455.591,213.348 453.591,213.682 451.5,213.5C 454.124,194.309 457.457,175.309 461.5,156.5 Z"/></g>
<g><path style="opacity:1" fill="#55c5bd" d="M 226.5,213.5 C 228.783,213.608 230.783,214.441 232.5,216C 232.167,216.333 231.833,216.667 231.5,217C 237.337,215.862 242.337,217.696 246.5,222.5C 247.689,223.429 249.022,223.762 250.5,223.5C 251.486,228.158 250.152,231.824 246.5,234.5C 237.816,235.133 229.316,235.133 221,234.5C 217.336,229.876 213.169,229.376 208.5,233C 215.617,235.557 222.95,237.224 230.5,238C 231.381,238.708 232.047,239.542 232.5,240.5C 210.957,237.092 190.29,231.092 170.5,222.5C 173.839,222.89 177.173,223.39 180.5,224C 188.16,226.315 195.66,228.815 203,231.5C 206.69,231.992 207.856,230.659 206.5,227.5C 198.675,225.594 191.008,223.428 183.5,221C 183.833,220.667 184.167,220.333 184.5,220C 183.376,219.751 182.376,219.251 181.5,218.5C 173.564,215.721 165.731,212.721 158,209.5C 154.298,209.906 153.632,211.573 156,214.5C 157.734,215.249 159.567,215.749 161.5,216C 164.773,217.559 167.44,219.726 169.5,222.5C 159.202,218.563 149.535,213.397 140.5,207C 136.09,203.366 134.09,198.866 134.5,193.5C 155.029,206.429 177.029,216.096 200.5,222.5C 204.082,223.79 207.749,224.79 211.5,225.5C 220.835,228.939 230.502,231.605 240.5,233.5C 244.708,232.389 246.208,229.722 245,225.5C 231.999,220.666 218.832,216.333 205.5,212.5C 191.918,208.367 178.584,203.701 165.5,198.5C 158.332,194.417 151.332,190.084 144.5,185.5C 144.56,184.957 144.893,184.624 145.5,184.5C 149.905,185.87 153.905,188.037 157.5,191C 167.183,195.032 176.85,199.032 186.5,203C 188.167,203.667 189.833,203.667 191.5,203C 195.382,200.066 198.382,201.066 200.5,206C 202.972,207.46 205.639,208.46 208.5,209C 208.167,209.333 207.833,209.667 207.5,210C 208.662,210.827 209.829,211.66 211,212.5C 216.273,214.054 221.44,214.387 226.5,213.5 Z"/></g>
<g><path style="opacity:1" fill="#d2fbfa" d="M 371.5,177.5 C 375.882,181.247 379.215,185.913 381.5,191.5C 385.539,195.375 389.039,199.708 392,204.5C 395.111,212.944 399.111,220.944 404,228.5C 404.78,230.387 404.613,232.054 403.5,233.5C 403.245,230.984 402.411,228.65 401,226.5C 390.652,210.471 380.819,194.137 371.5,177.5 Z"/></g>
<g><path style="opacity:1" fill="#131718" d="M 125.5,191.5 C 128.187,191.336 130.854,191.503 133.5,192C 132.424,196.78 133.424,201.114 136.5,205C 136.167,205.333 135.833,205.667 135.5,206C 137.694,208.695 139.694,211.528 141.5,214.5C 144.632,216.501 147.965,217.001 151.5,216C 160.568,222.535 170.568,226.868 181.5,229C 183.321,230.743 185.321,232.243 187.5,233.5C 185.912,236.257 183.579,237.09 180.5,236C 173.984,234.606 167.651,232.606 161.5,230C 162.833,229.667 164.167,229.333 165.5,229C 159.653,227.414 153.986,225.247 148.5,222.5C 147.583,223.127 146.583,223.461 145.5,223.5C 144.365,221.787 142.698,221.12 140.5,221.5C 138.67,233.838 142.504,243.838 152,251.5C 152.333,250.833 152.667,250.167 153,249.5C 155.775,250.136 157.941,251.636 159.5,254C 167.275,257.093 175.275,259.26 183.5,260.5C 184.942,261.82 185.608,263.486 185.5,265.5C 182.955,265.849 180.955,265.016 179.5,263C 171.405,262.156 163.405,260.989 155.5,259.5C 155.863,257.089 154.863,255.589 152.5,255C 153.5,254.667 154.5,254.333 155.5,254C 156.696,253.346 156.696,252.846 155.5,252.5C 154.28,253.711 153.113,253.711 152,252.5C 150.013,254.679 150.18,256.512 152.5,258C 152.272,258.399 151.938,258.565 151.5,258.5C 140.543,254.702 134.043,247.036 132,235.5C 130.582,230.572 130.249,225.572 131,220.5C 132.419,219.54 133.919,218.707 135.5,218C 125.566,212.299 121.399,203.799 123,192.5C 123.671,191.748 124.504,191.414 125.5,191.5 Z"/></g>
<g><path style="opacity:1" fill="#0e171c" d="M 165.5,198.5 C 178.584,203.701 191.918,208.367 205.5,212.5C 205.804,213.15 206.137,213.817 206.5,214.5C 213.23,217.352 220.23,219.518 227.5,221C 229.724,223.645 232.39,224.145 235.5,222.5C 235.5,223.5 235.5,224.5 235.5,225.5C 238.604,224.971 240.937,225.971 242.5,228.5C 242.167,229.5 241.5,230.167 240.5,230.5C 230.95,228.19 221.284,226.524 211.5,225.5C 207.749,224.79 204.082,223.79 200.5,222.5C 199.77,221.288 198.77,220.288 197.5,219.5C 192.696,218.725 188.362,216.892 184.5,214C 180.5,213.167 176.5,212.333 172.5,211.5C 170.293,209.317 167.626,207.984 164.5,207.5C 161.641,204.233 157.974,202.233 153.5,201.5C 152.691,199.929 152.357,198.262 152.5,196.5C 156.975,197.464 161.309,198.131 165.5,198.5 Z"/></g>
<g><path style="opacity:1" fill="#40b5b0" d="M 540.5,201.5 C 541.833,200.167 543.167,198.833 544.5,197.5C 545.167,197.167 545.833,196.833 546.5,196.5C 553.084,192.54 555.917,194.207 555,201.5C 541.244,212.624 526.744,222.624 511.5,231.5C 507.197,229.29 506.53,226.29 509.5,222.5C 519.596,215.057 529.929,208.057 540.5,201.5 Z"/></g>
<g><path style="opacity:1" fill="#42cec8" d="M 112.5,94.5 C 113.458,94.9528 114.292,95.6195 115,96.5C 118.953,109.722 124.453,122.056 131.5,133.5C 138.276,137.68 144.943,142.18 151.5,147C 155.036,147.619 157.869,146.452 160,143.5C 160.333,144.167 160.667,144.833 161,145.5C 164.321,144.029 167.821,143.363 171.5,143.5C 171.5,145.167 171.5,146.833 171.5,148.5C 166.671,148.715 165.004,151.049 166.5,155.5C 168.071,156.309 169.738,156.643 171.5,156.5C 171.48,154.857 172.147,153.524 173.5,152.5C 178.146,151.429 182.812,151.429 187.5,152.5C 191.558,152.16 195.558,151.493 199.5,150.5C 196.914,149.52 194.247,149.187 191.5,149.5C 192.063,140.892 192.063,132.559 191.5,124.5C 192.675,124.281 193.675,124.614 194.5,125.5C 196.937,130.551 200.937,133.384 206.5,134C 207.381,134.708 208.047,135.542 208.5,136.5C 207.492,139.028 205.826,141.195 203.5,143C 204.766,143.309 205.933,143.809 207,144.5C 207.211,150.218 207.711,155.885 208.5,161.5C 207.978,162.607 207.645,163.774 207.5,165C 208.674,168.109 209.674,171.276 210.5,174.5C 214.401,176.623 218.401,178.623 222.5,180.5C 223.506,180.062 223.506,179.396 222.5,178.5C 218.779,177.699 218.612,176.366 222,174.5C 227.481,175.335 232.981,175.502 238.5,175C 240.908,178.043 241.074,181.209 239,184.5C 238.282,183.549 237.449,183.383 236.5,184C 237.579,184.956 238.745,185.789 240,186.5C 240.465,185.069 241.299,183.903 242.5,183C 246.5,182.333 250.5,182.333 254.5,183C 255.288,186.076 255.788,189.242 256,192.5C 256.396,194.96 257.563,196.96 259.5,198.5C 263.445,199.491 267.445,199.824 271.5,199.5C 272.334,200.748 273.667,201.415 275.5,201.5C 279.476,202.164 283.476,202.497 287.5,202.5C 287.5,204.167 287.5,205.833 287.5,207.5C 292.833,207.5 298.167,207.5 303.5,207.5C 303.5,210.167 303.5,212.833 303.5,215.5C 304.833,215.5 306.167,215.5 307.5,215.5C 307.5,217.833 307.5,220.167 307.5,222.5C 310.022,222.128 312.022,222.961 313.5,225C 311.954,226.44 311.121,228.273 311,230.5C 309.088,231.692 307.088,232.692 305,233.5C 303.416,232.139 301.582,231.472 299.5,231.5C 299.5,229.167 299.5,226.833 299.5,224.5C 295.215,224.761 291.882,226.761 289.5,230.5C 291.26,233.212 291.927,236.212 291.5,239.5C 285.06,241.323 278.393,241.99 271.5,241.5C 271.334,246.511 271.501,251.511 272,256.5C 276.867,256.173 281.2,257.84 285,261.5C 285.492,262.549 285.326,263.549 284.5,264.5C 289.4,272.18 287.9,278.18 280,282.5C 279.517,283.448 279.351,284.448 279.5,285.5C 287.326,286.831 295.159,287.831 303,288.5C 303.414,288.043 303.914,287.709 304.5,287.5C 305.983,292.428 306.983,297.428 307.5,302.5C 312.214,302.353 316.881,302.686 321.5,303.5C 321.806,307.747 321.139,311.747 319.5,315.5C 314.5,315.5 309.5,315.5 304.5,315.5C 304.789,318.649 304.289,321.649 303,324.5C 302.586,324.043 302.086,323.709 301.5,323.5C 300.571,324.689 300.238,326.022 300.5,327.5C 296.486,327.334 292.486,327.501 288.5,328C 287.663,329.011 287.33,330.178 287.5,331.5C 282.833,331.5 278.167,331.5 273.5,331.5C 271.883,329.7 270.55,327.533 269.5,325C 269.611,323.278 270.111,323.112 271,324.5C 271.494,322.866 271.66,321.199 271.5,319.5C 264.338,320.78 257.171,321.78 250,322.5C 249.333,321.833 249.333,321.167 250,320.5C 251.973,318.772 253.806,316.939 255.5,315C 254.601,313.348 253.601,311.848 252.5,310.5C 251.833,310.167 251.167,309.833 250.5,309.5C 250.389,308.883 250.056,308.383 249.5,308C 247.527,307.505 245.527,307.338 243.5,307.5C 236.035,307.479 228.701,308.313 221.5,310C 211.167,310.667 200.833,310.667 190.5,310C 187.726,308.056 184.726,306.556 181.5,305.5C 180.391,304.035 180.891,303.035 183,302.5C 183.483,301.552 183.649,300.552 183.5,299.5C 204.161,300.734 224.828,300.734 245.5,299.5C 246.865,298.059 248.365,296.726 250,295.5C 251.379,291.465 250.212,288.632 246.5,287C 224.132,286.723 201.799,285.723 179.5,284C 175.728,282.063 171.728,280.896 167.5,280.5C 165.629,280.141 164.129,279.141 163,277.5C 160.015,272.689 157.515,267.689 155.5,262.5C 155.833,262.5 156.167,262.5 156.5,262.5C 170.459,267.239 184.793,270.239 199.5,271.5C 203.236,272.989 207.236,273.656 211.5,273.5C 211.62,274.586 212.287,275.253 213.5,275.5C 224.752,277.643 236.086,278.976 247.5,279.5C 249.799,277.461 251.466,274.961 252.5,272C 252.18,268.837 250.514,267.004 247.5,266.5C 246.833,266.5 246.167,266.5 245.5,266.5C 245.489,264.983 244.823,263.816 243.5,263C 236.897,261.837 230.23,261.17 223.5,261C 222.167,260.333 222.167,259.667 223.5,259C 220.309,258.969 217.143,259.469 214,260.5C 200.214,258.221 186.38,256.221 172.5,254.5C 161.983,252.827 153.15,248.161 146,240.5C 143.212,234.704 142.045,228.704 142.5,222.5C 143.417,223.127 144.417,223.461 145.5,223.5C 146.936,224.429 148.269,225.595 149.5,227C 176.554,238.431 204.554,246.765 233.5,252C 236.5,252.667 239.5,252.667 242.5,252C 244.68,249.582 245.013,246.916 243.5,244C 240.042,242.2 236.376,241.034 232.5,240.5C 232.047,239.542 231.381,238.708 230.5,238C 222.95,237.224 215.617,235.557 208.5,233C 213.169,229.376 217.336,229.876 221,234.5C 229.316,235.133 237.816,235.133 246.5,234.5C 250.152,231.824 251.486,228.158 250.5,223.5C 249.022,223.762 247.689,223.429 246.5,222.5C 242.337,217.696 237.337,215.862 231.5,217C 231.833,216.667 232.167,216.333 232.5,216C 230.783,214.441 228.783,213.608 226.5,213.5C 223.577,212.837 222.91,211.17 224.5,208.5C 227.773,209.585 231.106,209.752 234.5,209C 234.165,207.836 234.165,206.503 234.5,205C 233.5,204.667 232.5,204.333 231.5,204C 233.833,203.667 236.167,203.333 238.5,203C 235.5,202.667 232.5,202.333 229.5,202C 223.087,197.971 216.087,195.304 208.5,194C 208.833,193.667 209.167,193.333 209.5,193C 205.547,192.217 201.88,190.717 198.5,188.5C 194.878,187.675 191.211,187.175 187.5,187C 184.965,184.963 182.298,183.13 179.5,181.5C 177.955,180.548 176.288,180.215 174.5,180.5C 174.649,181.552 174.483,182.552 174,183.5C 170.824,178.745 169.491,178.745 170,183.5C 168.887,182.289 167.72,182.289 166.5,183.5C 166.653,180.184 165.986,176.85 164.5,173.5C 159.906,171.624 155.239,169.624 150.5,167.5C 148.059,162.377 144.059,159.71 138.5,159.5C 138.719,158.325 138.386,157.325 137.5,156.5C 135.591,155.652 133.591,155.318 131.5,155.5C 130.957,152.962 129.957,150.628 128.5,148.5C 138.332,155.586 148.666,161.919 159.5,167.5C 182.398,180.414 206.398,190.914 231.5,199C 237.788,200.378 240.621,197.878 240,191.5C 238.417,190.029 236.583,189.029 234.5,188.5C 232.883,187.962 231.216,187.629 229.5,187.5C 213.325,180.324 196.991,173.324 180.5,166.5C 171.002,160.916 161.335,155.583 151.5,150.5C 141.429,143.692 131.929,136.025 123,127.5C 120.033,120.08 117.2,112.746 114.5,105.5C 113.992,101.803 113.326,98.1359 112.5,94.5 Z"/></g>
<g><path style="opacity:1" fill="#072429" d="M 180.5,166.5 C 196.991,173.324 213.325,180.324 229.5,187.5C 220.006,185.161 210.506,182.494 201,179.5C 199.194,178.24 197.361,177.073 195.5,176C 195.833,175.667 196.167,175.333 196.5,175C 192.881,173.072 189.048,171.572 185,170.5C 183.025,169.535 181.525,168.201 180.5,166.5 Z"/></g>
<g><path style="opacity:1" fill="#05292e" d="M 159.5,167.5 C 168.849,168.509 177.183,172.009 184.5,178C 188.38,178.174 191.38,179.841 193.5,183C 196.5,183.333 199.5,183.667 202.5,184C 204.196,186.982 206.863,188.316 210.5,188C 214.1,191.327 218.433,192.994 223.5,193C 227.522,195.603 231.855,196.103 236.5,194.5C 234.914,192.827 234.247,190.827 234.5,188.5C 236.583,189.029 238.417,190.029 240,191.5C 240.621,197.878 237.788,200.378 231.5,199C 206.398,190.914 182.398,180.414 159.5,167.5 Z"/></g>
<g><path style="opacity:1" fill="#0a2323" d="M 123.5,143.5 C 120.363,162.559 127.363,176.559 144.5,185.5C 151.332,190.084 158.332,194.417 165.5,198.5C 161.309,198.131 156.975,197.464 152.5,196.5C 152.357,198.262 152.691,199.929 153.5,201.5C 157.974,202.233 161.641,204.233 164.5,207.5C 167.626,207.984 170.293,209.317 172.5,211.5C 176.5,212.333 180.5,213.167 184.5,214C 188.362,216.892 192.696,218.725 197.5,219.5C 198.77,220.288 199.77,221.288 200.5,222.5C 177.029,216.096 155.029,206.429 134.5,193.5C 134.09,198.866 136.09,203.366 140.5,207C 149.535,213.397 159.202,218.563 169.5,222.5C 169.833,222.5 170.167,222.5 170.5,222.5C 190.29,231.092 210.957,237.092 232.5,240.5C 236.376,241.034 240.042,242.2 243.5,244C 245.013,246.916 244.68,249.582 242.5,252C 239.5,252.667 236.5,252.667 233.5,252C 204.554,246.765 176.554,238.431 149.5,227C 148.269,225.595 146.936,224.429 145.5,223.5C 146.583,223.461 147.583,223.127 148.5,222.5C 153.986,225.247 159.653,227.414 165.5,229C 164.167,229.333 162.833,229.667 161.5,230C 167.651,232.606 173.984,234.606 180.5,236C 183.579,237.09 185.912,236.257 187.5,233.5C 185.321,232.243 183.321,230.743 181.5,229C 170.568,226.868 160.568,222.535 151.5,216C 147.965,217.001 144.632,216.501 141.5,214.5C 139.694,211.528 137.694,208.695 135.5,206C 135.833,205.667 136.167,205.333 136.5,205C 133.424,201.114 132.424,196.78 133.5,192C 130.854,191.503 128.187,191.336 125.5,191.5C 126.609,190.71 127.942,190.21 129.5,190C 128.944,189.617 128.611,189.117 128.5,188.5C 132.363,189.686 136.029,191.353 139.5,193.5C 142.547,192.125 143.88,189.792 143.5,186.5C 142.127,186.657 140.793,186.49 139.5,186C 132.289,181.288 126.623,175.121 122.5,167.5C 121.106,169.725 119.94,172.058 119,174.5C 118.658,172.381 117.825,172.047 116.5,173.5C 116.415,172.005 117.081,171.005 118.5,170.5C 119.347,166.508 119.68,162.675 119.5,159C 117.956,158.71 116.623,158.044 115.5,157C 117.235,156.349 118.902,156.515 120.5,157.5C 120.833,156.833 121.167,156.167 121.5,155.5C 120.442,152.804 119.442,150.137 118.5,147.5C 118.79,145.956 119.456,144.623 120.5,143.5C 121.614,142.224 122.614,142.224 123.5,143.5 Z"/></g>
<g><path style="opacity:1" fill="#44d0c3" d="M 170.5,222.5 C 170.167,222.5 169.833,222.5 169.5,222.5C 167.44,219.726 164.773,217.559 161.5,216C 159.567,215.749 157.734,215.249 156,214.5C 153.632,211.573 154.298,209.906 158,209.5C 165.731,212.721 173.564,215.721 181.5,218.5C 182.376,219.251 183.376,219.751 184.5,220C 184.167,220.333 183.833,220.667 183.5,221C 191.008,223.428 198.675,225.594 206.5,227.5C 207.856,230.659 206.69,231.992 203,231.5C 195.66,228.815 188.16,226.315 180.5,224C 177.173,223.39 173.839,222.89 170.5,222.5 Z"/></g>
<g><path style="opacity:1" fill="#3fcec6" d="M 259.5,166.5 C 272.162,173.831 284.829,181.165 297.5,188.5C 319.141,200.958 338.307,216.624 355,235.5C 358.971,241.111 362.138,247.111 364.5,253.5C 368.456,267.72 372.456,282.054 376.5,296.5C 375.85,296.804 375.183,297.137 374.5,297.5C 373.964,299.969 372.964,302.136 371.5,304C 365.371,302.589 359.037,302.255 352.5,303C 352,303.5 351.5,304 351,304.5C 350.805,309.418 350.305,314.251 349.5,319C 345.833,319.333 342.167,319.667 338.5,320C 338,320.5 337.5,321 337,321.5C 335.881,320.448 335.381,319.281 335.5,318C 331.262,317.177 327.262,317.844 323.5,320C 324.905,321.269 326.571,321.769 328.5,321.5C 328.5,322.5 328.5,323.5 328.5,324.5C 328.833,325.167 329.167,325.833 329.5,326.5C 328.167,327.5 326.833,328.5 325.5,329.5C 313.191,336.321 301.191,343.655 289.5,351.5C 276.744,360.711 262.744,367.544 247.5,372C 243.572,373.325 239.572,373.658 235.5,373C 233.393,371.736 232.393,369.903 232.5,367.5C 232.833,367.5 233.167,367.5 233.5,367.5C 238.439,366.353 243.105,364.687 247.5,362.5C 255.556,360.555 262.723,356.889 269,351.5C 269.483,350.552 269.649,349.552 269.5,348.5C 270.784,345.316 270.451,342.15 268.5,339C 269.667,337.167 271.167,335.667 273,334.5C 273.483,333.552 273.649,332.552 273.5,331.5C 278.167,331.5 282.833,331.5 287.5,331.5C 287.33,330.178 287.663,329.011 288.5,328C 292.486,327.501 296.486,327.334 300.5,327.5C 300.238,326.022 300.571,324.689 301.5,323.5C 302.086,323.709 302.586,324.043 303,324.5C 304.289,321.649 304.789,318.649 304.5,315.5C 309.5,315.5 314.5,315.5 319.5,315.5C 321.139,311.747 321.806,307.747 321.5,303.5C 316.881,302.686 312.214,302.353 307.5,302.5C 306.983,297.428 305.983,292.428 304.5,287.5C 303.914,287.709 303.414,288.043 303,288.5C 295.159,287.831 287.326,286.831 279.5,285.5C 279.351,284.448 279.517,283.448 280,282.5C 287.9,278.18 289.4,272.18 284.5,264.5C 285.326,263.549 285.492,262.549 285,261.5C 281.2,257.84 276.867,256.173 272,256.5C 271.501,251.511 271.334,246.511 271.5,241.5C 278.393,241.99 285.06,241.323 291.5,239.5C 291.927,236.212 291.26,233.212 289.5,230.5C 291.882,226.761 295.215,224.761 299.5,224.5C 299.5,226.833 299.5,229.167 299.5,231.5C 301.582,231.472 303.416,232.139 305,233.5C 307.088,232.692 309.088,231.692 311,230.5C 311.121,228.273 311.954,226.44 313.5,225C 312.022,222.961 310.022,222.128 307.5,222.5C 307.5,220.167 307.5,217.833 307.5,215.5C 306.167,215.5 304.833,215.5 303.5,215.5C 303.5,212.833 303.5,210.167 303.5,207.5C 298.167,207.5 292.833,207.5 287.5,207.5C 287.5,205.833 287.5,204.167 287.5,202.5C 283.476,202.497 279.476,202.164 275.5,201.5C 273.667,201.415 272.334,200.748 271.5,199.5C 275.183,199.053 278.85,198.387 282.5,197.5C 286.163,197.944 289.829,198.278 293.5,198.5C 294.052,196.669 294.052,195.003 293.5,193.5C 292.571,194.689 292.238,196.022 292.5,197.5C 291.5,197.5 290.5,197.5 289.5,197.5C 289.38,194.52 288.713,191.687 287.5,189C 288.328,188.085 289.328,187.419 290.5,187C 285.252,183.544 279.586,180.877 273.5,179C 272.833,178 272.167,177 271.5,176C 268.044,175.82 264.711,175.153 261.5,174C 262.167,173 262.833,172 263.5,171C 260.894,170.55 259.561,169.05 259.5,166.5 Z"/></g>
<g><path style="opacity:1" fill="#1abeb8" d="M 540.5,201.5 C 544.667,199.315 549,197.649 553.5,196.5C 553.657,197.873 553.49,199.207 553,200.5C 549.194,202.203 546.027,204.703 543.5,208C 536.075,212.351 528.741,216.851 521.5,221.5C 520.359,222.425 520.359,223.259 521.5,224C 519.156,224.837 517.156,226.171 515.5,228C 513.527,228.495 511.527,228.662 509.5,228.5C 509.383,226.516 510.05,224.85 511.5,223.5C 520.039,216.641 529.039,210.474 538.5,205C 539.823,204.184 540.489,203.017 540.5,201.5 Z"/></g>
<g><path style="opacity:1" fill="#042826" d="M 205.5,212.5 C 218.832,216.333 231.999,220.666 245,225.5C 246.208,229.722 244.708,232.389 240.5,233.5C 230.502,231.605 220.835,228.939 211.5,225.5C 221.284,226.524 230.95,228.19 240.5,230.5C 241.5,230.167 242.167,229.5 242.5,228.5C 240.937,225.971 238.604,224.971 235.5,225.5C 235.5,224.5 235.5,223.5 235.5,222.5C 232.39,224.145 229.724,223.645 227.5,221C 220.23,219.518 213.23,217.352 206.5,214.5C 206.137,213.817 205.804,213.15 205.5,212.5 Z"/></g>
<g><path style="opacity:1" fill="#dcfcfb" d="M 544.5,197.5 C 543.167,198.833 541.833,200.167 540.5,201.5C 529.929,208.057 519.596,215.057 509.5,222.5C 506.53,226.29 507.197,229.29 511.5,231.5C 526.744,222.624 541.244,212.624 555,201.5C 555.917,194.207 553.084,192.54 546.5,196.5C 546.238,195.022 546.571,193.689 547.5,192.5C 557.52,192.273 560.187,196.606 555.5,205.5C 549.124,208.629 543.791,212.962 539.5,218.5C 535.122,219.763 531.122,221.596 527.5,224C 522.598,231.818 515.598,234.818 506.5,233C 505.196,232.196 504.529,231.029 504.5,229.5C 505,227.5 505.5,225.5 506,223.5C 515.353,216.942 524.186,209.775 532.5,202C 536.03,199.283 540.03,197.783 544.5,197.5 Z"/></g>
<g><path style="opacity:1" fill="#37aeac" d="M 548.5,231.5 C 548.808,233.924 548.474,236.257 547.5,238.5C 539.49,241.506 531.49,244.506 523.5,247.5C 522.583,246.873 521.583,246.539 520.5,246.5C 518.83,243.694 519.163,241.194 521.5,239C 528.202,236.329 534.869,233.663 541.5,231C 543.885,230.444 546.218,230.61 548.5,231.5 Z"/></g>
<g><path style="opacity:1" fill="#072626" d="M 145.5,223.5 C 144.417,223.461 143.417,223.127 142.5,222.5C 142.045,228.704 143.212,234.704 146,240.5C 153.15,248.161 161.983,252.827 172.5,254.5C 183.954,258.131 195.621,260.797 207.5,262.5C 199.175,262.671 191.175,262.004 183.5,260.5C 175.275,259.26 167.275,257.093 159.5,254C 157.941,251.636 155.775,250.136 153,249.5C 152.667,250.167 152.333,250.833 152,251.5C 142.504,243.838 138.67,233.838 140.5,221.5C 142.698,221.12 144.365,221.787 145.5,223.5 Z"/></g>
<g><path style="opacity:1" fill="#bff9f7" d="M 548.5,231.5 C 549.748,232.334 550.415,233.667 550.5,235.5C 550.449,237.1 550.116,238.6 549.5,240C 541.748,242.518 534.081,245.185 526.5,248C 524.011,248.941 522.011,248.441 520.5,246.5C 521.583,246.539 522.583,246.873 523.5,247.5C 531.49,244.506 539.49,241.506 547.5,238.5C 548.474,236.257 548.808,233.924 548.5,231.5 Z"/></g>
<g><path style="opacity:1" fill="#57bdba" d="M 172.5,254.5 C 186.38,256.221 200.214,258.221 214,260.5C 217.143,259.469 220.309,258.969 223.5,259C 222.167,259.667 222.167,260.333 223.5,261C 230.23,261.17 236.897,261.837 243.5,263C 244.823,263.816 245.489,264.983 245.5,266.5C 232.869,265.005 220.202,263.671 207.5,262.5C 195.621,260.797 183.954,258.131 172.5,254.5 Z"/></g>
<g><path style="opacity:1" fill="#05322f" d="M 199.5,271.5 C 184.793,270.239 170.459,267.239 156.5,262.5C 156.5,262.167 156.5,261.833 156.5,261.5C 157.15,261.196 157.817,260.863 158.5,260.5C 172.421,264.076 186.087,267.743 199.5,271.5 Z"/></g>
<g><path style="opacity:1" fill="#0a1917" d="M 183.5,260.5 C 191.175,262.004 199.175,262.671 207.5,262.5C 220.202,263.671 232.869,265.005 245.5,266.5C 247.338,268.661 247.672,270.995 246.5,273.5C 243,273.833 239.5,274.167 236,274.5C 223.95,272.662 211.783,271.662 199.5,271.5C 186.087,267.743 172.421,264.076 158.5,260.5C 157.817,260.863 157.15,261.196 156.5,261.5C 154.326,261.25 152.659,260.25 151.5,258.5C 151.938,258.565 152.272,258.399 152.5,258C 150.18,256.512 150.013,254.679 152,252.5C 153.113,253.711 154.28,253.711 155.5,252.5C 156.696,252.846 156.696,253.346 155.5,254C 154.5,254.333 153.5,254.667 152.5,255C 154.863,255.589 155.863,257.089 155.5,259.5C 163.405,260.989 171.405,262.156 179.5,263C 180.955,265.016 182.955,265.849 185.5,265.5C 185.608,263.486 184.942,261.82 183.5,260.5 Z"/></g>
<g><path style="opacity:1" fill="#5cb7b3" d="M 364.5,253.5 C 371.289,267.395 375.956,282.062 378.5,297.5C 377.508,297.672 376.842,297.338 376.5,296.5C 372.456,282.054 368.456,267.72 364.5,253.5 Z"/></g>
<g><path style="opacity:1" fill="#171819" d="M 152.5,262.5 C 157.016,269.531 161.016,276.865 164.5,284.5C 166.135,285.681 167.802,285.681 169.5,284.5C 170.192,285.025 170.692,285.692 171,286.5C 171.212,288.78 172.045,290.78 173.5,292.5C 171.604,293.466 169.604,293.799 167.5,293.5C 163.309,292.738 159.642,290.904 156.5,288C 152.688,282.876 149.521,277.376 147,271.5C 145.391,266.293 147.224,263.293 152.5,262.5 Z"/></g>
<g><path style="opacity:1" fill="#053a3c" d="M 245.5,266.5 C 246.167,266.5 246.833,266.5 247.5,266.5C 250.918,271.509 249.751,274.843 244,276.5C 233.132,275.813 222.299,274.813 211.5,273.5C 207.236,273.656 203.236,272.989 199.5,271.5C 211.783,271.662 223.95,272.662 236,274.5C 239.5,274.167 243,273.833 246.5,273.5C 247.672,270.995 247.338,268.661 245.5,266.5 Z"/></g>
<g><path style="opacity:1" fill="#59bfc2" d="M 247.5,266.5 C 250.514,267.004 252.18,268.837 252.5,272C 251.466,274.961 249.799,277.461 247.5,279.5C 236.086,278.976 224.752,277.643 213.5,275.5C 212.287,275.253 211.62,274.586 211.5,273.5C 222.299,274.813 233.132,275.813 244,276.5C 249.751,274.843 250.918,271.509 247.5,266.5 Z"/></g>
<g><path style="opacity:1" fill="#032926" d="M 171.5,283.5 C 194.944,288.291 218.611,289.624 242.5,287.5C 248.878,287.984 250.544,290.817 247.5,296C 244.956,297.092 242.289,297.759 239.5,298C 220.639,298.895 201.972,298.395 183.5,296.5C 201.175,296.706 218.842,296.873 236.5,297C 241.34,296.398 245.007,294.731 247.5,292C 245.345,290.643 243.178,290.476 241,291.5C 217.999,291.41 195.166,289.41 172.5,285.5C 172.137,284.817 171.804,284.15 171.5,283.5 Z"/></g>
<g><path style="opacity:1" fill="#0a2525" d="M 462.5,358.5 C 462.5,358.167 462.5,357.833 462.5,357.5C 471.893,343.944 483.227,332.11 496.5,322C 502.512,318.146 508.845,314.979 515.5,312.5C 512.862,308.865 512.029,304.865 513,300.5C 514.833,296.694 517,293.194 519.5,290C 516.175,275.811 507.842,265.977 494.5,260.5C 487.991,257.356 480.991,256.023 473.5,256.5C 466.616,256.211 459.95,257.211 453.5,259.5C 453.953,258.542 454.619,257.708 455.5,257C 458.167,256 460.833,255 463.5,254C 474.632,252.922 485.632,253.588 496.5,256C 506.132,260.117 512.465,266.617 515.5,275.5C 520.381,279.495 523.381,284.661 524.5,291C 521.07,294.325 518.237,298.159 516,302.5C 515.333,304.833 515.333,307.167 516,309.5C 516.41,311.668 517.244,313.001 518.5,313.5C 518.32,314.554 517.987,315.554 517.5,316.5C 512.258,317.227 507.258,318.727 502.5,321C 504.891,321.691 504.891,322.691 502.5,324C 501.5,324.667 500.5,324.667 499.5,324C 500.696,323.346 500.696,322.846 499.5,322.5C 498.449,323.885 497.116,324.885 495.5,325.5C 494.608,329.226 492.274,331.393 488.5,332C 485.325,335.876 481.825,339.376 478,342.5C 475.874,346.203 476.374,346.87 479.5,344.5C 480.711,345.274 480.711,346.107 479.5,347C 481.709,347.957 481.543,349.124 479,350.5C 477.981,349.313 476.814,348.313 475.5,347.5C 471.914,350.708 468.581,354.208 465.5,358C 464.552,358.483 463.552,358.649 462.5,358.5 Z"/></g>
<g><path style="opacity:1" fill="#0c1915" d="M 152.5,262.5 C 153.5,262.5 154.5,262.5 155.5,262.5C 157.515,267.689 160.015,272.689 163,277.5C 164.129,279.141 165.629,280.141 167.5,280.5C 168.436,281.974 169.77,282.974 171.5,283.5C 171.804,284.15 172.137,284.817 172.5,285.5C 195.166,289.41 217.999,291.41 241,291.5C 243.178,290.476 245.345,290.643 247.5,292C 245.007,294.731 241.34,296.398 236.5,297C 218.842,296.873 201.175,296.706 183.5,296.5C 179.048,296.369 174.714,295.702 170.5,294.5C 169.209,294.737 168.209,294.404 167.5,293.5C 169.604,293.799 171.604,293.466 173.5,292.5C 172.045,290.78 171.212,288.78 171,286.5C 170.692,285.692 170.192,285.025 169.5,284.5C 167.802,285.681 166.135,285.681 164.5,284.5C 161.016,276.865 157.016,269.531 152.5,262.5 Z"/></g>
<g><path style="opacity:1" fill="#58b9b5" d="M 167.5,280.5 C 171.728,280.896 175.728,282.063 179.5,284C 201.799,285.723 224.132,286.723 246.5,287C 250.212,288.632 251.379,291.465 250,295.5C 248.365,296.726 246.865,298.059 245.5,299.5C 224.828,300.734 204.161,300.734 183.5,299.5C 183.649,300.552 183.483,301.552 183,302.5C 180.891,303.035 180.391,304.035 181.5,305.5C 184.726,306.556 187.726,308.056 190.5,310C 200.833,310.667 211.167,310.667 221.5,310C 228.701,308.313 236.035,307.479 243.5,307.5C 226.564,311.945 209.231,313.445 191.5,312C 184.934,311.324 179.601,308.49 175.5,303.5C 175.121,298.996 172.788,296.663 168.5,296.5C 169.167,295.833 169.833,295.167 170.5,294.5C 174.714,295.702 179.048,296.369 183.5,296.5C 201.972,298.395 220.639,298.895 239.5,298C 242.289,297.759 244.956,297.092 247.5,296C 250.544,290.817 248.878,287.984 242.5,287.5C 218.611,289.624 194.944,288.291 171.5,283.5C 169.77,282.974 168.436,281.974 167.5,280.5 Z"/></g>
<g><path style="opacity:1" fill="#50c3bb" d="M 494.5,260.5 C 507.842,265.977 516.175,275.811 519.5,290C 517,293.194 514.833,296.694 513,300.5C 512.029,304.865 512.862,308.865 515.5,312.5C 508.845,314.979 502.512,318.146 496.5,322C 483.227,332.11 471.893,343.944 462.5,357.5C 462.963,354.518 463.296,351.518 463.5,348.5C 467.734,348.101 470.234,345.768 471,341.5C 471.333,341.833 471.667,342.167 472,342.5C 472.71,341.027 473.876,340.36 475.5,340.5C 475.351,339.448 475.517,338.448 476,337.5C 478.275,335.767 480.442,333.933 482.5,332C 479.635,329.597 479.801,328.764 483,329.5C 484.333,328.167 485.667,326.833 487,325.5C 487.333,325.833 487.667,326.167 488,326.5C 489.119,325.448 489.619,324.281 489.5,323C 494.667,322.496 496.834,319.663 496,314.5C 501.332,316.466 505.999,315.466 510,311.5C 510.49,310.207 510.657,308.873 510.5,307.5C 507.513,307.578 506.847,306.411 508.5,304C 508.312,302.118 507.312,300.952 505.5,300.5C 502.292,302.963 498.792,304.963 495,306.5C 492.26,305.718 489.426,305.218 486.5,305C 483.032,302.043 480.365,298.543 478.5,294.5C 477.208,288.099 478.875,282.766 483.5,278.5C 484.689,277.571 486.022,277.238 487.5,277.5C 479.506,283.461 478.506,290.461 484.5,298.5C 493.462,304.794 500.629,303.127 506,293.5C 507.345,281.347 501.845,276.013 489.5,277.5C 488.737,276.732 487.737,276.232 486.5,276C 493.652,274.774 500.152,276.274 506,280.5C 506.5,280 507,279.5 507.5,279C 505.86,276.396 504.527,273.563 503.5,270.5C 503.709,269.914 504.043,269.414 504.5,269C 499.692,267.781 496.359,264.948 494.5,260.5 Z"/></g>
<g><path style="opacity:1" fill="#052d2d" d="M 487.5,277.5 C 488.167,277.5 488.833,277.5 489.5,277.5C 501.845,276.013 507.345,281.347 506,293.5C 500.629,303.127 493.462,304.794 484.5,298.5C 478.506,290.461 479.506,283.461 487.5,277.5 Z"/></g>
<g><path style="opacity:1" fill="#121519" d="M 490.5,279.5 C 495.181,279.705 499.181,281.372 502.5,284.5C 502.351,286.504 503.018,288.504 504.5,290.5C 503.533,292.762 502.866,295.095 502.5,297.5C 498.802,297.6 495.635,298.933 493,301.5C 481.548,295.158 480.715,287.825 490.5,279.5 Z"/></g>
<g><path style="opacity:1" fill="#141818" d="M 157.5,508.5 C 157.081,505.675 158.081,503.509 160.5,502C 169.713,495.28 179.047,488.78 188.5,482.5C 201.011,473.745 213.344,464.745 225.5,455.5C 227.607,455.278 229.274,454.278 230.5,452.5C 234.413,452.759 236.413,454.759 236.5,458.5C 255.167,458.5 273.833,458.5 292.5,458.5C 325.937,455.893 357.604,447.227 387.5,432.5C 389.19,430.481 390.856,428.481 392.5,426.5C 394.35,424.428 396.683,423.095 399.5,422.5C 403.125,420.781 406.958,419.448 411,418.5C 412.365,418.844 413.532,419.511 414.5,420.5C 416.506,420.868 418.506,420.368 420.5,419C 419.672,418.085 418.672,417.419 417.5,417C 418.167,416.667 418.833,416.333 419.5,416C 418.167,415.333 418.167,414.667 419.5,414C 418.833,413.667 418.167,413.333 417.5,413C 424.482,406.604 431.315,400.104 438,393.5C 438.637,390.672 440.304,388.672 443,387.5C 445.556,382.19 449.222,377.19 454,372.5C 455.009,370.975 455.509,369.308 455.5,367.5C 457.603,364.28 459.936,361.28 462.5,358.5C 463.552,358.649 464.552,358.483 465.5,358C 468.581,354.208 471.914,350.708 475.5,347.5C 476.814,348.313 477.981,349.313 479,350.5C 481.543,349.124 481.709,347.957 479.5,347C 480.711,346.107 480.711,345.274 479.5,344.5C 476.374,346.87 475.874,346.203 478,342.5C 481.825,339.376 485.325,335.876 488.5,332C 492.274,331.393 494.608,329.226 495.5,325.5C 497.116,324.885 498.449,323.885 499.5,322.5C 500.696,322.846 500.696,323.346 499.5,324C 500.5,324.667 501.5,324.667 502.5,324C 504.891,322.691 504.891,321.691 502.5,321C 507.258,318.727 512.258,317.227 517.5,316.5C 517.987,315.554 518.32,314.554 518.5,313.5C 517.244,313.001 516.41,311.668 516,309.5C 515.333,307.167 515.333,304.833 516,302.5C 518.237,298.159 521.07,294.325 524.5,291C 523.381,284.661 520.381,279.495 515.5,275.5C 512.465,266.617 506.132,260.117 496.5,256C 485.632,253.588 474.632,252.922 463.5,254C 460.833,255 458.167,256 455.5,257C 454.619,257.708 453.953,258.542 453.5,259.5C 452.833,259.5 452.167,259.5 451.5,259.5C 449.473,259.338 447.473,259.505 445.5,260C 445.833,260.333 446.167,260.667 446.5,261C 440.006,262.654 434.34,265.821 429.5,270.5C 427.632,270.054 425.799,269.721 424,269.5C 421.044,273.336 417.544,277.336 413.5,281.5C 407.83,284.617 402.83,288.617 398.5,293.5C 392.548,298.232 385.882,299.565 378.5,297.5C 375.956,282.062 371.289,267.395 364.5,253.5C 362.138,247.111 358.971,241.111 355,235.5C 338.307,216.624 319.141,200.958 297.5,188.5C 297.918,187.778 298.584,187.278 299.5,187C 296.553,186.888 295.22,185.388 295.5,182.5C 292.017,183.084 289.017,182.251 286.5,180C 285.503,178.098 285.503,175.931 286.5,173.5C 284.473,173.662 282.473,173.495 280.5,173C 274.934,170.42 269.267,168.087 263.5,166C 259.962,163.731 256.295,161.731 252.5,160C 248.998,156.169 244.998,154.002 240.5,153.5C 240.167,153.5 239.833,153.5 239.5,153.5C 237.978,150.971 236.311,148.471 234.5,146C 228.15,143.158 221.817,140.324 215.5,137.5C 215.762,136.022 215.429,134.689 214.5,133.5C 212.465,132.959 210.465,132.292 208.5,131.5C 206.321,128.914 203.654,127.081 200.5,126C 197.674,123.929 195.341,121.429 193.5,118.5C 192.914,118.709 192.414,119.043 192,119.5C 190.157,117.829 187.991,116.829 185.5,116.5C 183.611,115.396 181.945,114.063 180.5,112.5C 180.822,110.278 180.155,108.444 178.5,107C 175.154,104.326 171.487,102.159 167.5,100.5C 166.833,97.1667 164.833,95.8333 161.5,96.5C 160.852,94.9142 160.352,93.2475 160,91.5C 155.896,89.3945 152.396,86.5611 149.5,83C 149.833,82.6667 150.167,82.3333 150.5,82C 141.312,72.9789 132.312,63.8122 123.5,54.5C 123.003,52.784 122.669,51.1173 122.5,49.5C 120.433,48.8659 118.6,47.8659 117,46.5C 115.72,42.9672 113.886,39.8005 111.5,37C 112.71,32.597 112.21,32.4303 110,36.5C 109.329,35.7476 108.496,35.4142 107.5,35.5C 107.5,35.1667 107.5,34.8333 107.5,34.5C 107.44,33.9569 107.107,33.6236 106.5,33.5C 105.495,38.2046 104.495,42.8713 103.5,47.5C 104.096,61.9229 105.263,76.2562 107,90.5C 106.667,89.5 106.333,88.5 106,87.5C 105.774,90.095 105.274,92.595 104.5,95C 106.329,95.2735 107.829,96.1068 109,97.5C 112.408,107.057 115.408,116.724 118,126.5C 121.981,129.647 125.814,132.98 129.5,136.5C 131.985,143.67 129.985,146.003 123.5,143.5C 122.614,142.224 121.614,142.224 120.5,143.5C 119.456,144.623 118.79,145.956 118.5,147.5C 119.442,150.137 120.442,152.804 121.5,155.5C 121.167,156.167 120.833,156.833 120.5,157.5C 118.902,156.515 117.235,156.349 115.5,157C 116.623,158.044 117.956,158.71 119.5,159C 119.68,162.675 119.347,166.508 118.5,170.5C 117.081,171.005 116.415,172.005 116.5,173.5C 111.181,162.383 109.681,150.716 112,138.5C 112.833,137 114,135.833 115.5,135C 110.195,127.219 106.362,118.719 104,109.5C 96.4142,81.9869 93.4142,53.9869 95,25.5C 95.7133,20.7701 97.5466,16.6035 100.5,13C 103.257,12.218 105.757,12.718 108,14.5C 121.69,39.5405 139.19,61.7072 160.5,81C 204.364,118.277 251.697,150.61 302.5,178C 323.241,190.302 342.074,205.135 359,222.5C 367.799,233.76 374.799,246.094 380,259.5C 382.942,268.825 385.776,278.158 388.5,287.5C 404.325,276.087 420.325,264.92 436.5,254C 461.611,240.832 486.278,241.499 510.5,256C 520.957,265.416 527.957,276.916 531.5,290.5C 545.668,294.667 558.502,301.334 570,310.5C 570.63,312.903 569.797,314.737 567.5,316C 553.102,317.172 538.769,318.838 524.5,321C 506.933,327.206 492.433,337.706 481,352.5C 464.391,376.783 445.224,398.95 423.5,419C 384.221,448.449 339.887,464.782 290.5,468C 269.167,468.333 247.833,468.667 226.5,469C 206.349,485.572 185.015,500.405 162.5,513.5C 159.819,512.819 158.152,511.152 157.5,508.5 Z"/></g>
<g><path style="opacity:1" fill="#58bcb1" d="M 522.5,300.5 C 530.641,300.899 538.307,303.065 545.5,307C 538.5,307.667 531.5,307.667 524.5,307C 521.679,305.379 521.013,303.212 522.5,300.5 Z"/></g>
<g><path style="opacity:1" fill="#e5e3e9" d="M 493.5,284.5 C 496.244,284.2 497.911,285.367 498.5,288C 497.914,292.183 495.747,293.35 492,291.5C 491.185,288.802 491.685,286.468 493.5,284.5 Z"/></g>
<g><path style="opacity:1" fill="#082726" d="M 451.5,259.5 C 434.006,268.477 417.673,279.31 402.5,292C 401.255,292.791 399.922,293.291 398.5,293.5C 402.83,288.617 407.83,284.617 413.5,281.5C 417.544,277.336 421.044,273.336 424,269.5C 425.799,269.721 427.632,270.054 429.5,270.5C 434.34,265.821 440.006,262.654 446.5,261C 446.167,260.667 445.833,260.333 445.5,260C 447.473,259.505 449.473,259.338 451.5,259.5 Z"/></g>
<g><path style="opacity:1" fill="#05292e" d="M 151.5,150.5 C 161.335,155.583 171.002,160.916 180.5,166.5C 176.482,165.708 172.482,164.541 168.5,163C 163.154,159.662 157.821,156.328 152.5,153C 151.748,152.329 151.414,151.496 151.5,150.5 Z"/></g>
<g><path style="opacity:1" fill="#0c2021" d="M 103.5,47.5 C 105.508,57.5922 106.674,67.9255 107,78.5C 107.9,83.238 109.066,87.9047 110.5,92.5C 109.145,93.6753 109.312,94.6753 111,95.5C 110.847,99.4475 112.014,102.781 114.5,105.5C 117.2,112.746 120.033,120.08 123,127.5C 131.929,136.025 141.429,143.692 151.5,150.5C 149.199,149.94 146.866,149.44 144.5,149C 142.875,146.18 140.875,145.847 138.5,148C 139.909,150.879 142.243,152.545 145.5,153C 148.001,156.332 150.667,159.498 153.5,162.5C 155.113,163.427 156.779,164.261 158.5,165C 159.252,165.671 159.586,166.504 159.5,167.5C 148.666,161.919 138.332,155.586 128.5,148.5C 127.027,146.605 125.36,144.939 123.5,143.5C 129.985,146.003 131.985,143.67 129.5,136.5C 125.814,132.98 121.981,129.647 118,126.5C 115.408,116.724 112.408,107.057 109,97.5C 107.829,96.1068 106.329,95.2735 104.5,95C 105.274,92.595 105.774,90.095 106,87.5C 106.333,88.5 106.667,89.5 107,90.5C 105.263,76.2562 104.096,61.9229 103.5,47.5 Z"/></g>
<g><path style="opacity:1" fill="#082928" d="M 215.5,137.5 C 221.817,140.324 228.15,143.158 234.5,146C 236.311,148.471 237.978,150.971 239.5,153.5C 231.119,148.65 223.119,143.316 215.5,137.5 Z"/></g>
<g><path style="opacity:1" fill="#062f2f" d="M 185.5,116.5 C 187.991,116.829 190.157,117.829 192,119.5C 192.414,119.043 192.914,118.709 193.5,118.5C 195.341,121.429 197.674,123.929 200.5,126C 203.654,127.081 206.321,128.914 208.5,131.5C 210.465,132.292 212.465,132.959 214.5,133.5C 215.429,134.689 215.762,136.022 215.5,137.5C 204.942,131.271 194.942,124.271 185.5,116.5 Z"/></g>
<g><path style="opacity:1" fill="#57c3bd" d="M 135.5,73.5 C 143.592,81.9325 152.259,89.5991 161.5,96.5C 167.222,102.555 173.556,107.889 180.5,112.5C 181.945,114.063 183.611,115.396 185.5,116.5C 194.942,124.271 204.942,131.271 215.5,137.5C 223.119,143.316 231.119,148.65 239.5,153.5C 239.833,153.5 240.167,153.5 240.5,153.5C 243.319,156.075 246.319,158.408 249.5,160.5C 245.327,159.497 241.327,157.997 237.5,156C 233.3,152.4 228.633,149.567 223.5,147.5C 222.614,146.675 222.281,145.675 222.5,144.5C 220.801,144.66 219.134,144.494 217.5,144C 215.816,139.808 212.816,137.308 208.5,136.5C 208.047,135.542 207.381,134.708 206.5,134C 200.937,133.384 196.937,130.551 194.5,125.5C 193.675,124.614 192.675,124.281 191.5,124.5C 187.591,121.62 183.591,118.62 179.5,115.5C 178.614,114.675 178.281,113.675 178.5,112.5C 175.054,112.111 171.721,111.278 168.5,110C 169.747,108.506 169.747,107.006 168.5,105.5C 165.527,103.853 162.86,101.853 160.5,99.5C 159.167,100.167 157.833,100.833 156.5,101.5C 155.379,95.8043 152.213,91.1377 147,87.5C 145.779,88.2718 144.779,89.2718 144,90.5C 143.383,89.5509 143.549,88.7175 144.5,88C 142.851,85.3519 140.851,83.0186 138.5,81C 136.807,78.7799 135.807,76.2799 135.5,73.5 Z"/></g>
<g><path style="opacity:1" fill="#072e2c" d="M 161.5,96.5 C 164.833,95.8333 166.833,97.1667 167.5,100.5C 171.487,102.159 175.154,104.326 178.5,107C 180.155,108.444 180.822,110.278 180.5,112.5C 173.556,107.889 167.222,102.555 161.5,96.5 Z"/></g>
<g><path style="opacity:1" fill="#43cfc7" d="M 107.5,34.5 C 107.5,34.8333 107.5,35.1667 107.5,35.5C 114.904,49.5729 124.237,62.2396 135.5,73.5C 135.807,76.2799 136.807,78.7799 138.5,81C 140.851,83.0186 142.851,85.3519 144.5,88C 143.549,88.7175 143.383,89.5509 144,90.5C 144.779,89.2718 145.779,88.2718 147,87.5C 152.213,91.1377 155.379,95.8043 156.5,101.5C 157.833,100.833 159.167,100.167 160.5,99.5C 162.86,101.853 165.527,103.853 168.5,105.5C 169.747,107.006 169.747,108.506 168.5,110C 171.721,111.278 175.054,112.111 178.5,112.5C 178.281,113.675 178.614,114.675 179.5,115.5C 183.591,118.62 187.591,121.62 191.5,124.5C 192.063,132.559 192.063,140.892 191.5,149.5C 194.247,149.187 196.914,149.52 199.5,150.5C 195.558,151.493 191.558,152.16 187.5,152.5C 182.812,151.429 178.146,151.429 173.5,152.5C 172.147,153.524 171.48,154.857 171.5,156.5C 169.738,156.643 168.071,156.309 166.5,155.5C 165.004,151.049 166.671,148.715 171.5,148.5C 171.5,146.833 171.5,145.167 171.5,143.5C 167.821,143.363 164.321,144.029 161,145.5C 160.667,144.833 160.333,144.167 160,143.5C 157.869,146.452 155.036,147.619 151.5,147C 144.943,142.18 138.276,137.68 131.5,133.5C 124.453,122.056 118.953,109.722 115,96.5C 114.292,95.6195 113.458,94.9528 112.5,94.5C 107.774,74.597 106.107,54.597 107.5,34.5 Z"/></g>
<g><path style="opacity:1" fill="#0b2122" d="M 161.5,96.5 C 152.259,89.5991 143.592,81.9325 135.5,73.5C 124.237,62.2396 114.904,49.5729 107.5,35.5C 108.496,35.4142 109.329,35.7476 110,36.5C 112.21,32.4303 112.71,32.597 111.5,37C 113.886,39.8005 115.72,42.9672 117,46.5C 118.6,47.8659 120.433,48.8659 122.5,49.5C 122.669,51.1173 123.003,52.784 123.5,54.5C 132.312,63.8122 141.312,72.9789 150.5,82C 150.167,82.3333 149.833,82.6667 149.5,83C 152.396,86.5611 155.896,89.3945 160,91.5C 160.352,93.2475 160.852,94.9142 161.5,96.5 Z"/></g>
<g><path style="opacity:1" fill="#053531" d="M 107.5,34.5 C 106.107,54.597 107.774,74.597 112.5,94.5C 113.326,98.1359 113.992,101.803 114.5,105.5C 112.014,102.781 110.847,99.4475 111,95.5C 109.312,94.6753 109.145,93.6753 110.5,92.5C 109.066,87.9047 107.9,83.238 107,78.5C 106.674,67.9255 105.508,57.5922 103.5,47.5C 104.495,42.8713 105.495,38.2046 106.5,33.5C 107.107,33.6236 107.44,33.9569 107.5,34.5 Z"/></g>
<g><path style="opacity:1" fill="#101817" d="M 168.5,296.5 C 172.788,296.663 175.121,298.996 175.5,303.5C 175.146,306.421 176.146,308.754 178.5,310.5C 183.237,312.719 188.237,313.886 193.5,314C 201.216,314.199 208.882,314.699 216.5,315.5C 217.795,314.902 219.128,314.402 220.5,314C 226.167,313.667 231.833,313.333 237.5,313C 241.546,310.725 245.879,309.558 250.5,309.5C 251.167,309.833 251.833,310.167 252.5,310.5C 252.975,313.313 251.975,315.313 249.5,316.5C 241.126,317.295 232.792,318.795 224.5,321C 214.783,321.282 205.117,321.449 195.5,321.5C 193.913,320.638 192.246,319.971 190.5,319.5C 188.182,319.997 185.848,320.33 183.5,320.5C 171.21,318.715 164.71,311.715 164,299.5C 165.129,297.859 166.629,296.859 168.5,296.5 Z"/></g>
<g><path style="opacity:1" fill="#042926" d="M 175.5,303.5 C 179.601,308.49 184.934,311.324 191.5,312C 209.231,313.445 226.564,311.945 243.5,307.5C 245.527,307.338 247.527,307.505 249.5,308C 250.056,308.383 250.389,308.883 250.5,309.5C 245.879,309.558 241.546,310.725 237.5,313C 231.833,313.333 226.167,313.667 220.5,314C 219.128,314.402 217.795,314.902 216.5,315.5C 208.882,314.699 201.216,314.199 193.5,314C 188.237,313.886 183.237,312.719 178.5,310.5C 176.146,308.754 175.146,306.421 175.5,303.5 Z"/></g>
<g><path style="opacity:1" fill="#3fcec7" d="M 478.5,294.5 C 480.365,298.543 483.032,302.043 486.5,305C 489.426,305.218 492.26,305.718 495,306.5C 498.792,304.963 502.292,302.963 505.5,300.5C 507.312,300.952 508.312,302.118 508.5,304C 506.847,306.411 507.513,307.578 510.5,307.5C 510.657,308.873 510.49,310.207 510,311.5C 505.999,315.466 501.332,316.466 496,314.5C 496.834,319.663 494.667,322.496 489.5,323C 489.619,324.281 489.119,325.448 488,326.5C 487.667,326.167 487.333,325.833 487,325.5C 485.667,326.833 484.333,328.167 483,329.5C 479.801,328.764 479.635,329.597 482.5,332C 480.442,333.933 478.275,335.767 476,337.5C 475.517,338.448 475.351,339.448 475.5,340.5C 473.876,340.36 472.71,341.027 472,342.5C 471.667,342.167 471.333,341.833 471,341.5C 470.234,345.768 467.734,348.101 463.5,348.5C 463.296,351.518 462.963,354.518 462.5,357.5C 462.5,357.833 462.5,358.167 462.5,358.5C 459.936,361.28 457.603,364.28 455.5,367.5C 447.407,377.436 439.073,387.269 430.5,397C 420.559,406.12 410.226,414.62 399.5,422.5C 396.683,423.095 394.35,424.428 392.5,426.5C 367.889,440.294 341.556,449.294 313.5,453.5C 304.876,452.017 296.209,452.517 287.5,455C 263.701,455.676 258.368,455.509 271.5,454.5C 271.5,452.833 271.5,451.167 271.5,449.5C 266.886,448.338 262.219,447.338 257.5,446.5C 267.181,436.986 276.681,427.319 286,417.5C 287.057,419.219 287.89,421.053 288.5,423C 293.489,423.499 298.489,423.666 303.5,423.5C 303.318,421.409 303.652,419.409 304.5,417.5C 303.907,415.618 303.24,413.785 302.5,412C 297.511,411.501 292.511,411.334 287.5,411.5C 288.072,404.69 288.072,398.023 287.5,391.5C 285.194,391.993 282.861,392.326 280.5,392.5C 280.326,394.861 279.993,397.194 279.5,399.5C 273.759,398.935 271.092,401.602 271.5,407.5C 266.167,407.5 260.833,407.5 255.5,407.5C 255.258,410.681 255.258,413.681 255.5,416.5C 252.737,417.104 250.403,418.438 248.5,420.5C 249.025,421.192 249.692,421.692 250.5,422C 247.391,422.696 244.558,423.862 242,425.5C 241,424.167 240,422.833 239,421.5C 234.926,422.597 230.76,423.43 226.5,424C 226.957,424.414 227.291,424.914 227.5,425.5C 225.673,427.487 224.673,429.821 224.5,432.5C 226.833,432.5 229.167,432.5 231.5,432.5C 231.5,433.5 231.5,434.5 231.5,435.5C 233.833,435.5 236.167,435.5 238.5,435.5C 238.62,437.199 238.954,438.865 239.5,440.5C 238.411,443.518 237.745,446.351 237.5,449C 239.826,451.788 242.659,452.621 246,451.5C 247.944,454.598 246.944,456.264 243,456.5C 240.624,456.315 238.791,455.315 237.5,453.5C 237.167,452.833 236.833,452.167 236.5,451.5C 234.638,447 231.305,446.5 226.5,450C 225.468,452.874 223.468,454.374 220.5,454.5C 220.5,455.5 220.5,456.5 220.5,457.5C 215.16,460.928 209.66,464.261 204,467.5C 204.451,464.378 205.951,461.711 208.5,459.5C 207.529,458.038 207.862,456.705 209.5,455.5C 211.838,457.011 212.504,456.677 211.5,454.5C 212.38,451.988 213.713,449.821 215.5,448C 212.854,447.503 210.187,447.336 207.5,447.5C 207.167,444.5 208.5,443.167 211.5,443.5C 213.059,437.941 215.226,432.608 218,427.5C 219.637,425.19 221.804,423.69 224.5,423C 223.833,422.667 223.167,422.333 222.5,422C 224.5,421.667 226.5,421.333 228.5,421C 232.386,414.447 237.552,409.281 244,405.5C 246.531,400.639 250.364,397.139 255.5,395C 256.167,394 256.833,393 257.5,392C 262.4,391.156 266.067,388.156 268.5,383C 270.577,382.808 272.577,382.308 274.5,381.5C 278.645,377.856 282.645,374.023 286.5,370C 285.944,369.617 285.611,369.117 285.5,368.5C 287.593,369.973 289.26,369.473 290.5,367C 293.515,365.894 296.515,364.728 299.5,363.5C 303.689,359.81 308.022,356.31 312.5,353C 314.945,352.09 316.278,352.924 316.5,355.5C 315.733,356.172 315.066,357.005 314.5,358C 309.44,357.692 305.773,359.692 303.5,364C 305.827,365.815 308.327,365.982 311,364.5C 313.84,365.506 316.507,366.839 319,368.5C 319.5,378.494 319.666,388.494 319.5,398.5C 314.133,399.4 308.8,399.4 303.5,398.5C 303.244,400.792 303.577,402.959 304.5,405C 309.155,405.499 313.821,405.666 318.5,405.5C 318.844,408.562 319.511,411.562 320.5,414.5C 325.134,410.868 329.467,406.868 333.5,402.5C 334.95,401.15 335.617,399.484 335.5,397.5C 336.833,397.5 338.167,397.5 339.5,397.5C 339.167,394.5 340.5,393.167 343.5,393.5C 343.167,390.5 344.5,389.167 347.5,389.5C 347.277,386.886 348.444,385.219 351,384.5C 351.909,381.487 352.742,378.487 353.5,375.5C 354.552,375.351 355.552,375.517 356.5,376C 358.687,380.858 362.354,383.858 367.5,385C 371.737,385.804 375.737,385.304 379.5,383.5C 380.054,377.605 379.388,371.938 377.5,366.5C 379.185,364.983 380.685,363.316 382,361.5C 383,363.5 384,365.5 385,367.5C 388.723,363.616 392.223,359.616 395.5,355.5C 396.818,357.751 398.484,359.751 400.5,361.5C 401.246,362.736 401.579,364.07 401.5,365.5C 402.833,365.5 404.167,365.5 405.5,365.5C 405.351,364.448 405.517,363.448 406,362.5C 409,359.167 412,355.833 415,352.5C 416.075,348.23 416.575,343.897 416.5,339.5C 421.43,339.803 426.263,339.469 431,338.5C 430.935,332.287 431.768,326.287 433.5,320.5C 438.837,319.611 444.004,319.278 449,319.5C 449.499,314.177 449.666,308.844 449.5,303.5C 443.545,302.637 437.545,302.303 431.5,302.5C 431.5,300.167 431.5,297.833 431.5,295.5C 428.833,295.5 426.167,295.5 423.5,295.5C 423.5,297.833 423.5,300.167 423.5,302.5C 422.167,302.5 420.833,302.5 419.5,302.5C 419.662,300.473 419.495,298.473 419,296.5C 417.084,296.645 415.251,296.145 413.5,295C 415.192,293.599 415.859,291.766 415.5,289.5C 418.247,289.813 420.914,289.48 423.5,288.5C 422.167,287.5 422.167,286.5 423.5,285.5C 422.737,284.281 421.737,283.281 420.5,282.5C 421.274,281.289 422.107,281.289 423,282.5C 425.157,280.208 427.324,277.875 429.5,275.5C 435.759,278.961 439.425,277.128 440.5,270C 444.926,270.165 449.593,270.832 454.5,272C 455.071,273.205 455.738,274.372 456.5,275.5C 457.386,274.675 457.719,273.675 457.5,272.5C 458.833,272.5 460.167,272.5 461.5,272.5C 462.149,277.136 462.649,281.802 463,286.5C 467.401,287.467 471.901,287.8 476.5,287.5C 475.99,290.388 476.656,292.721 478.5,294.5 Z"/></g>
<g><path style="opacity:1" fill="#3ecec9" d="M 494.5,260.5 C 496.359,264.948 499.692,267.781 504.5,269C 504.043,269.414 503.709,269.914 503.5,270.5C 504.527,273.563 505.86,276.396 507.5,279C 507,279.5 506.5,280 506,280.5C 500.152,276.274 493.652,274.774 486.5,276C 487.737,276.232 488.737,276.732 489.5,277.5C 488.833,277.5 488.167,277.5 487.5,277.5C 486.022,277.238 484.689,277.571 483.5,278.5C 478.875,282.766 477.208,288.099 478.5,294.5C 476.656,292.721 475.99,290.388 476.5,287.5C 471.901,287.8 467.401,287.467 463,286.5C 462.649,281.802 462.149,277.136 461.5,272.5C 460.167,272.5 458.833,272.5 457.5,272.5C 457.719,273.675 457.386,274.675 456.5,275.5C 455.738,274.372 455.071,273.205 454.5,272C 449.593,270.832 444.926,270.165 440.5,270C 439.425,277.128 435.759,278.961 429.5,275.5C 427.324,277.875 425.157,280.208 423,282.5C 422.107,281.289 421.274,281.289 420.5,282.5C 421.737,283.281 422.737,284.281 423.5,285.5C 422.167,286.5 422.167,287.5 423.5,288.5C 420.914,289.48 418.247,289.813 415.5,289.5C 415.859,291.766 415.192,293.599 413.5,295C 415.251,296.145 417.084,296.645 419,296.5C 419.495,298.473 419.662,300.473 419.5,302.5C 420.833,302.5 422.167,302.5 423.5,302.5C 423.5,300.167 423.5,297.833 423.5,295.5C 426.167,295.5 428.833,295.5 431.5,295.5C 431.5,297.833 431.5,300.167 431.5,302.5C 437.545,302.303 443.545,302.637 449.5,303.5C 449.666,308.844 449.499,314.177 449,319.5C 444.004,319.278 438.837,319.611 433.5,320.5C 431.768,326.287 430.935,332.287 431,338.5C 426.263,339.469 421.43,339.803 416.5,339.5C 416.575,343.897 416.075,348.23 415,352.5C 412,355.833 409,359.167 406,362.5C 405.517,363.448 405.351,364.448 405.5,365.5C 404.167,365.5 402.833,365.5 401.5,365.5C 401.579,364.07 401.246,362.736 400.5,361.5C 398.484,359.751 396.818,357.751 395.5,355.5C 392.223,359.616 388.723,363.616 385,367.5C 384,365.5 383,363.5 382,361.5C 380.685,363.316 379.185,364.983 377.5,366.5C 379.388,371.938 380.054,377.605 379.5,383.5C 375.737,385.304 371.737,385.804 367.5,385C 362.354,383.858 358.687,380.858 356.5,376C 355.552,375.517 354.552,375.351 353.5,375.5C 352.742,378.487 351.909,381.487 351,384.5C 348.444,385.219 347.277,386.886 347.5,389.5C 344.5,389.167 343.167,390.5 343.5,393.5C 340.5,393.167 339.167,394.5 339.5,397.5C 338.167,397.5 336.833,397.5 335.5,397.5C 335.617,399.484 334.95,401.15 333.5,402.5C 329.467,406.868 325.134,410.868 320.5,414.5C 319.511,411.562 318.844,408.562 318.5,405.5C 313.821,405.666 309.155,405.499 304.5,405C 303.577,402.959 303.244,400.792 303.5,398.5C 308.8,399.4 314.133,399.4 319.5,398.5C 319.666,388.494 319.5,378.494 319,368.5C 316.507,366.839 313.84,365.506 311,364.5C 308.327,365.982 305.827,365.815 303.5,364C 305.773,359.692 309.44,357.692 314.5,358C 315.066,357.005 315.733,356.172 316.5,355.5C 317.522,352.638 319.188,350.138 321.5,348C 328.45,344.525 334.45,341.525 339.5,339C 340.448,338.517 341.448,338.351 342.5,338.5C 342.244,336.063 341.577,333.729 340.5,331.5C 343.293,325.4 341.126,322.066 334,321.5C 332.518,323.112 330.685,324.112 328.5,324.5C 328.5,323.5 328.5,322.5 328.5,321.5C 326.571,321.769 324.905,321.269 323.5,320C 327.262,317.844 331.262,317.177 335.5,318C 335.381,319.281 335.881,320.448 337,321.5C 337.5,321 338,320.5 338.5,320C 342.167,319.667 345.833,319.333 349.5,319C 350.305,314.251 350.805,309.418 351,304.5C 351.5,304 352,303.5 352.5,303C 359.037,302.255 365.371,302.589 371.5,304C 372.964,302.136 373.964,299.969 374.5,297.5C 375.183,297.137 375.85,296.804 376.5,296.5C 376.842,297.338 377.508,297.672 378.5,297.5C 385.882,299.565 392.548,298.232 398.5,293.5C 399.922,293.291 401.255,292.791 402.5,292C 417.673,279.31 434.006,268.477 451.5,259.5C 452.167,259.5 452.833,259.5 453.5,259.5C 459.95,257.211 466.616,256.211 473.5,256.5C 480.991,256.023 487.991,257.356 494.5,260.5 Z"/></g>
<g><path style="opacity:1" fill="#4acac3" d="M 252.5,310.5 C 253.601,311.848 254.601,313.348 255.5,315C 253.806,316.939 251.973,318.772 250,320.5C 249.333,321.167 249.333,321.833 250,322.5C 257.171,321.78 264.338,320.78 271.5,319.5C 271.66,321.199 271.494,322.866 271,324.5C 270.111,323.112 269.611,323.278 269.5,325C 270.55,327.533 271.883,329.7 273.5,331.5C 273.649,332.552 273.483,333.552 273,334.5C 271.167,335.667 269.667,337.167 268.5,339C 270.451,342.15 270.784,345.316 269.5,348.5C 268.199,347.038 266.699,345.704 265,344.5C 264.235,344.57 263.735,344.903 263.5,345.5C 263.167,345.5 262.833,345.5 262.5,345.5C 254.307,348.954 245.974,352.121 237.5,355C 232.27,356.546 226.937,357.38 221.5,357.5C 220.448,357.649 219.448,357.483 218.5,357C 216.229,354.218 213.563,352.051 210.5,350.5C 210.5,350.167 210.5,349.833 210.5,349.5C 227.2,347.32 243.2,342.82 258.5,336C 259.252,335.329 259.586,334.496 259.5,333.5C 261.53,329.469 260.197,327.136 255.5,326.5C 250.995,327.997 246.661,329.664 242.5,331.5C 240.597,331.796 238.93,332.463 237.5,333.5C 229.522,335.062 221.522,336.562 213.5,338C 200.712,341.108 192.045,336.608 187.5,324.5C 207.726,324.377 227.726,322.211 247.5,318C 248.416,317.722 249.082,317.222 249.5,316.5C 251.975,315.313 252.975,313.313 252.5,310.5 Z"/></g>
<g><path style="opacity:1" fill="#07464a" d="M 259.5,333.5 C 259.838,330.174 258.338,328.507 255,328.5C 250.893,329.815 246.726,330.815 242.5,331.5C 246.661,329.664 250.995,327.997 255.5,326.5C 260.197,327.136 261.53,329.469 259.5,333.5 Z"/></g>
<g><path style="opacity:1" fill="#092523" d="M 249.5,316.5 C 249.082,317.222 248.416,317.722 247.5,318C 227.726,322.211 207.726,324.377 187.5,324.5C 192.045,336.608 200.712,341.108 213.5,338C 221.522,336.562 229.522,335.062 237.5,333.5C 237.631,334.376 237.298,335.043 236.5,335.5C 233.291,336.215 230.291,337.382 227.5,339C 216.807,339.737 206.14,339.57 195.5,338.5C 189.371,336.011 185.704,331.344 184.5,324.5C 182.955,323.548 181.288,323.215 179.5,323.5C 181.292,322.691 183.292,322.191 185.5,322C 184.584,321.722 183.918,321.222 183.5,320.5C 185.848,320.33 188.182,319.997 190.5,319.5C 192.246,319.971 193.913,320.638 195.5,321.5C 205.117,321.449 214.783,321.282 224.5,321C 232.792,318.795 241.126,317.295 249.5,316.5 Z"/></g>
<g><path style="opacity:1" fill="#171a19" d="M 179.5,323.5 C 181.288,323.215 182.955,323.548 184.5,324.5C 185.704,331.344 189.371,336.011 195.5,338.5C 196.6,339.558 197.934,340.392 199.5,341C 198.304,341.654 198.304,342.154 199.5,342.5C 208.384,340.695 217.384,340.029 226.5,340.5C 226.5,341.5 226.5,342.5 226.5,343.5C 223.281,342.754 220.281,343.587 217.5,346C 215.5,346.333 213.5,346.667 211.5,347C 210.619,347.708 209.953,348.542 209.5,349.5C 195.054,350.362 184.554,344.362 178,331.5C 177.333,329.167 177.333,326.833 178,324.5C 178.383,323.944 178.883,323.611 179.5,323.5 Z"/></g>
<g><path style="opacity:1" fill="#0b1b1d" d="M 259.5,333.5 C 259.586,334.496 259.252,335.329 258.5,336C 243.2,342.82 227.2,347.32 210.5,349.5C 210.167,349.5 209.833,349.5 209.5,349.5C 209.953,348.542 210.619,347.708 211.5,347C 213.5,346.667 215.5,346.333 217.5,346C 220.281,343.587 223.281,342.754 226.5,343.5C 226.5,342.5 226.5,341.5 226.5,340.5C 217.384,340.029 208.384,340.695 199.5,342.5C 198.304,342.154 198.304,341.654 199.5,341C 197.934,340.392 196.6,339.558 195.5,338.5C 206.14,339.57 216.807,339.737 227.5,339C 230.291,337.382 233.291,336.215 236.5,335.5C 237.298,335.043 237.631,334.376 237.5,333.5C 238.93,332.463 240.597,331.796 242.5,331.5C 246.726,330.815 250.893,329.815 255,328.5C 258.338,328.507 259.838,330.174 259.5,333.5 Z"/></g>
<g><path style="opacity:1" fill="#51c3bb" d="M 316.5,355.5 C 316.278,352.924 314.945,352.09 312.5,353C 308.022,356.31 303.689,359.81 299.5,363.5C 296.515,364.728 293.515,365.894 290.5,367C 289.26,369.473 287.593,369.973 285.5,368.5C 289.5,365.5 293.5,362.5 297.5,359.5C 298.71,359.068 299.71,358.401 300.5,357.5C 312.722,349.468 325.222,341.801 338,334.5C 339.721,326.948 336.887,324.281 329.5,326.5C 329.167,325.833 328.833,325.167 328.5,324.5C 330.685,324.112 332.518,323.112 334,321.5C 341.126,322.066 343.293,325.4 340.5,331.5C 341.577,333.729 342.244,336.063 342.5,338.5C 341.448,338.351 340.448,338.517 339.5,339C 334.45,341.525 328.45,344.525 321.5,348C 319.188,350.138 317.522,352.638 316.5,355.5 Z"/></g>
<g><path style="opacity:1" fill="#042a2e" d="M 300.5,357.5 C 300.082,356.778 299.416,356.278 298.5,356C 301.952,352.94 305.952,350.94 310.5,350C 313.171,347.013 316.171,344.513 319.5,342.5C 325.47,340.003 330.637,337.337 335,334.5C 337.307,331.406 336.973,328.739 334,326.5C 331.508,328.497 328.675,329.497 325.5,329.5C 326.833,328.5 328.167,327.5 329.5,326.5C 336.887,324.281 339.721,326.948 338,334.5C 325.222,341.801 312.722,349.468 300.5,357.5 Z"/></g>
<g><path style="opacity:1" fill="#04332e" d="M 269.5,348.5 C 269.649,349.552 269.483,350.552 269,351.5C 262.723,356.889 255.556,360.555 247.5,362.5C 247.414,361.504 247.748,360.671 248.5,360C 253.495,358.558 258.328,356.724 263,354.5C 264.064,352.731 265.231,351.064 266.5,349.5C 265.2,349.096 264.2,347.763 263.5,345.5C 263.735,344.903 264.235,344.57 265,344.5C 266.699,345.704 268.199,347.038 269.5,348.5 Z"/></g>
<g><path style="opacity:1" fill="#092326" d="M 325.5,329.5 C 324.618,331.384 323.118,332.717 321,333.5C 320.691,334.766 320.191,335.933 319.5,337C 319.833,337.333 320.167,337.667 320.5,338C 315.441,341.603 310.107,344.77 304.5,347.5C 303.446,347.32 302.446,346.987 301.5,346.5C 299.092,349.414 296.258,351.747 293,353.5C 291.923,352.571 290.756,351.904 289.5,351.5C 301.191,343.655 313.191,336.321 325.5,329.5 Z"/></g>
<g><path style="opacity:1" fill="#04332f" d="M 262.5,345.5 C 262.056,347.113 261.056,348.28 259.5,349C 249.718,352.425 240.051,355.925 230.5,359.5C 227.36,358.911 224.36,358.244 221.5,357.5C 226.937,357.38 232.27,356.546 237.5,355C 245.974,352.121 254.307,348.954 262.5,345.5 Z"/></g>
<g><path style="opacity:1" fill="#072c2b" d="M 289.5,351.5 C 289.229,353.312 288.562,354.978 287.5,356.5C 284.165,356.998 280.832,358.332 277.5,360.5C 276.833,361.5 276.167,362.5 275.5,363.5C 269.106,365.53 263.106,368.364 257.5,372C 255.19,372.497 252.857,372.663 250.5,372.5C 245.349,374.096 240.016,375.096 234.5,375.5C 232.431,375.176 232.098,374.342 233.5,373C 231.754,372.529 230.087,371.862 228.5,371C 229.056,370.617 229.389,370.117 229.5,369.5C 228.432,368.566 227.099,368.232 225.5,368.5C 227.607,367.532 229.941,367.198 232.5,367.5C 232.393,369.903 233.393,371.736 235.5,373C 239.572,373.658 243.572,373.325 247.5,372C 262.744,367.544 276.744,360.711 289.5,351.5 Z"/></g>
<g><path style="opacity:1" fill="#161818" d="M 210.5,351.5 C 212.13,353.026 212.963,355.026 213,357.5C 213.75,358.126 214.584,358.626 215.5,359C 222.235,359.888 228.902,361.055 235.5,362.5C 234.826,364.195 234.159,365.862 233.5,367.5C 233.167,367.5 232.833,367.5 232.5,367.5C 229.941,367.198 227.607,367.532 225.5,368.5C 217.347,369.839 210.847,367.173 206,360.5C 202.973,355.004 204.473,352.004 210.5,351.5 Z"/></g>
<g><path style="opacity:1" fill="#0b1b19" d="M 262.5,345.5 C 262.833,345.5 263.167,345.5 263.5,345.5C 264.2,347.763 265.2,349.096 266.5,349.5C 265.231,351.064 264.064,352.731 263,354.5C 258.328,356.724 253.495,358.558 248.5,360C 247.748,360.671 247.414,361.504 247.5,362.5C 243.105,364.687 238.439,366.353 233.5,367.5C 234.159,365.862 234.826,364.195 235.5,362.5C 228.902,361.055 222.235,359.888 215.5,359C 214.584,358.626 213.75,358.126 213,357.5C 212.963,355.026 212.13,353.026 210.5,351.5C 210.5,351.167 210.5,350.833 210.5,350.5C 213.563,352.051 216.229,354.218 218.5,357C 219.448,357.483 220.448,357.649 221.5,357.5C 224.36,358.244 227.36,358.911 230.5,359.5C 240.051,355.925 249.718,352.425 259.5,349C 261.056,348.28 262.056,347.113 262.5,345.5 Z"/></g>
<g><path style="opacity:1" fill="#0e161d" d="M 300.5,357.5 C 299.71,358.401 298.71,359.068 297.5,359.5C 296.883,359.389 296.383,359.056 296,358.5C 293.236,360.59 290.403,362.59 287.5,364.5C 286.914,364.291 286.414,363.957 286,363.5C 282.738,366.294 278.905,368.127 274.5,369C 275.624,369.249 276.624,369.749 277.5,370.5C 275.153,372.581 272.82,374.581 270.5,376.5C 271.265,373.904 271.599,371.237 271.5,368.5C 268.15,368.506 265.15,369.506 262.5,371.5C 262.709,372.086 263.043,372.586 263.5,373C 262.207,373.49 260.873,373.657 259.5,373.5C 259.617,375.484 258.95,377.15 257.5,378.5C 255.24,376.235 252.906,374.235 250.5,372.5C 252.857,372.663 255.19,372.497 257.5,372C 263.106,368.364 269.106,365.53 275.5,363.5C 276.167,362.5 276.833,361.5 277.5,360.5C 280.832,358.332 284.165,356.998 287.5,356.5C 288.562,354.978 289.229,353.312 289.5,351.5C 290.756,351.904 291.923,352.571 293,353.5C 296.258,351.747 299.092,349.414 301.5,346.5C 302.446,346.987 303.446,347.32 304.5,347.5C 310.107,344.77 315.441,341.603 320.5,338C 320.167,337.667 319.833,337.333 319.5,337C 320.191,335.933 320.691,334.766 321,333.5C 323.118,332.717 324.618,331.384 325.5,329.5C 328.675,329.497 331.508,328.497 334,326.5C 336.973,328.739 337.307,331.406 335,334.5C 330.637,337.337 325.47,340.003 319.5,342.5C 316.171,344.513 313.171,347.013 310.5,350C 305.952,350.94 301.952,352.94 298.5,356C 299.416,356.278 300.082,356.778 300.5,357.5 Z"/></g>
<g><path style="opacity:1" fill="#141617" d="M 270.5,376.5 C 268.193,377.653 265.86,378.82 263.5,380C 263.957,380.414 264.291,380.914 264.5,381.5C 261.109,383.189 258.109,385.356 255.5,388C 255.833,388.333 256.167,388.667 256.5,389C 254.913,389.862 253.246,390.529 251.5,391C 247.656,396.518 242.656,400.518 236.5,403C 234.077,404.571 232.744,406.737 232.5,409.5C 231.833,409.833 231.167,410.167 230.5,410.5C 226.794,410.499 224.461,412.165 223.5,415.5C 220.132,417.017 217.132,419.184 214.5,422C 210.386,423.557 206.386,425.39 202.5,427.5C 200.588,431.127 197.588,433.294 193.5,434C 192.177,434.816 191.511,435.983 191.5,437.5C 188.167,439.5 184.833,441.5 181.5,443.5C 162.549,451.541 143.215,458.708 123.5,465C 120.739,465.722 118.073,465.555 115.5,464.5C 112.914,461.707 112.914,458.874 115.5,456C 140.837,447.665 165.503,437.665 189.5,426C 210.288,413.213 229.954,398.88 248.5,383C 245.032,382.958 241.532,383.125 238,383.5C 230.379,383.883 225.546,380.383 223.5,373C 224.799,370.826 226.799,369.659 229.5,369.5C 229.389,370.117 229.056,370.617 228.5,371C 230.087,371.862 231.754,372.529 233.5,373C 232.098,374.342 232.431,375.176 234.5,375.5C 240.016,375.096 245.349,374.096 250.5,372.5C 252.906,374.235 255.24,376.235 257.5,378.5C 258.95,377.15 259.617,375.484 259.5,373.5C 260.873,373.657 262.207,373.49 263.5,373C 263.043,372.586 262.709,372.086 262.5,371.5C 265.15,369.506 268.15,368.506 271.5,368.5C 271.599,371.237 271.265,373.904 270.5,376.5 Z"/></g>
<g><path style="opacity:1" fill="#05292a" d="M 297.5,359.5 C 293.5,362.5 289.5,365.5 285.5,368.5C 268.014,382.409 250.347,396.075 232.5,409.5C 232.744,406.737 234.077,404.571 236.5,403C 242.656,400.518 247.656,396.518 251.5,391C 253.246,390.529 254.913,389.862 256.5,389C 256.167,388.667 255.833,388.333 255.5,388C 258.109,385.356 261.109,383.189 264.5,381.5C 264.291,380.914 263.957,380.414 263.5,380C 265.86,378.82 268.193,377.653 270.5,376.5C 272.82,374.581 275.153,372.581 277.5,370.5C 276.624,369.749 275.624,369.249 274.5,369C 278.905,368.127 282.738,366.294 286,363.5C 286.414,363.957 286.914,364.291 287.5,364.5C 290.403,362.59 293.236,360.59 296,358.5C 296.383,359.056 296.883,359.389 297.5,359.5 Z"/></g>
<g><path style="opacity:1" fill="#40cdca" d="M 313.5,453.5 C 307.646,454.653 301.646,455.653 295.5,456.5C 276.183,457.393 256.85,457.726 237.5,457.5C 237.5,456.167 237.5,454.833 237.5,453.5C 238.791,455.315 240.624,456.315 243,456.5C 246.944,456.264 247.944,454.598 246,451.5C 242.659,452.621 239.826,451.788 237.5,449C 237.745,446.351 238.411,443.518 239.5,440.5C 238.954,438.865 238.62,437.199 238.5,435.5C 236.167,435.5 233.833,435.5 231.5,435.5C 231.5,434.5 231.5,433.5 231.5,432.5C 229.167,432.5 226.833,432.5 224.5,432.5C 224.673,429.821 225.673,427.487 227.5,425.5C 227.291,424.914 226.957,424.414 226.5,424C 230.76,423.43 234.926,422.597 239,421.5C 240,422.833 241,424.167 242,425.5C 244.558,423.862 247.391,422.696 250.5,422C 249.692,421.692 249.025,421.192 248.5,420.5C 250.403,418.438 252.737,417.104 255.5,416.5C 255.258,413.681 255.258,410.681 255.5,407.5C 260.833,407.5 266.167,407.5 271.5,407.5C 271.092,401.602 273.759,398.935 279.5,399.5C 279.993,397.194 280.326,394.861 280.5,392.5C 282.861,392.326 285.194,391.993 287.5,391.5C 288.072,398.023 288.072,404.69 287.5,411.5C 292.511,411.334 297.511,411.501 302.5,412C 303.24,413.785 303.907,415.618 304.5,417.5C 303.652,419.409 303.318,421.409 303.5,423.5C 298.489,423.666 293.489,423.499 288.5,423C 287.89,421.053 287.057,419.219 286,417.5C 276.681,427.319 267.181,436.986 257.5,446.5C 262.219,447.338 266.886,448.338 271.5,449.5C 271.5,451.167 271.5,452.833 271.5,454.5C 258.368,455.509 263.701,455.676 287.5,455C 296.209,452.517 304.876,452.017 313.5,453.5 Z"/></g>
<g><path style="opacity:1" fill="#0c2421" d="M 455.5,367.5 C 455.509,369.308 455.009,370.975 454,372.5C 449.222,377.19 445.556,382.19 443,387.5C 440.304,388.672 438.637,390.672 438,393.5C 431.315,400.104 424.482,406.604 417.5,413C 418.167,413.333 418.833,413.667 419.5,414C 418.167,414.667 418.167,415.333 419.5,416C 418.833,416.333 418.167,416.667 417.5,417C 418.672,417.419 419.672,418.085 420.5,419C 418.506,420.368 416.506,420.868 414.5,420.5C 413.532,419.511 412.365,418.844 411,418.5C 406.958,419.448 403.125,420.781 399.5,422.5C 410.226,414.62 420.559,406.12 430.5,397C 439.073,387.269 447.407,377.436 455.5,367.5 Z"/></g>
<g><path style="opacity:1" fill="#04292a" d="M 230.5,410.5 C 218.757,421.214 205.757,430.214 191.5,437.5C 191.511,435.983 192.177,434.816 193.5,434C 197.588,433.294 200.588,431.127 202.5,427.5C 206.386,425.39 210.386,423.557 214.5,422C 217.132,419.184 220.132,417.017 223.5,415.5C 224.461,412.165 226.794,410.499 230.5,410.5 Z"/></g>
<g><path style="opacity:1" fill="#4dcbc1" d="M 285.5,368.5 C 285.611,369.117 285.944,369.617 286.5,370C 282.645,374.023 278.645,377.856 274.5,381.5C 272.577,382.308 270.577,382.808 268.5,383C 266.067,388.156 262.4,391.156 257.5,392C 256.833,393 256.167,394 255.5,395C 250.364,397.139 246.531,400.639 244,405.5C 237.552,409.281 232.386,414.447 228.5,421C 226.5,421.333 224.5,421.667 222.5,422C 223.167,422.333 223.833,422.667 224.5,423C 221.804,423.69 219.637,425.19 218,427.5C 215.226,432.608 213.059,437.941 211.5,443.5C 208.5,443.167 207.167,444.5 207.5,447.5C 210.187,447.336 212.854,447.503 215.5,448C 213.713,449.821 212.38,451.988 211.5,454.5C 212.504,456.677 211.838,457.011 209.5,455.5C 207.862,456.705 207.529,458.038 208.5,459.5C 205.951,461.711 204.451,464.378 204,467.5C 209.66,464.261 215.16,460.928 220.5,457.5C 220.5,456.5 220.5,455.5 220.5,454.5C 223.468,454.374 225.468,452.874 226.5,450C 231.305,446.5 234.638,447 236.5,451.5C 231.717,449.723 228.051,451.057 225.5,455.5C 213.344,464.745 201.011,473.745 188.5,482.5C 187.833,481.833 187.167,481.167 186.5,480.5C 188.168,478.66 189.668,476.66 191,474.5C 191.748,472.16 191.248,470.16 189.5,468.5C 190.5,468.5 191.5,468.5 192.5,468.5C 192.336,471.187 192.503,473.854 193,476.5C 194.419,475.54 195.919,474.707 197.5,474C 196.346,473.086 196.513,472.253 198,471.5C 198.667,472.833 199.333,472.833 200,471.5C 202.272,468.511 201.439,467.178 197.5,467.5C 198.402,464.215 199.402,460.881 200.5,457.5C 197.958,455.083 196.458,452.083 196,448.5C 195.505,450.473 195.338,452.473 195.5,454.5C 189.119,455.174 183.452,457.508 178.5,461.5C 176.547,462.156 174.547,462.489 172.5,462.5C 177.582,459.456 182.915,456.622 188.5,454C 194.075,449.049 193.241,445.549 186,443.5C 184.744,443.648 183.577,443.982 182.5,444.5C 182.5,443.833 182.167,443.5 181.5,443.5C 184.833,441.5 188.167,439.5 191.5,437.5C 205.757,430.214 218.757,421.214 230.5,410.5C 231.167,410.167 231.833,409.833 232.5,409.5C 250.347,396.075 268.014,382.409 285.5,368.5 Z"/></g>
<g><path style="opacity:1" fill="#0d1f1d" d="M 172.5,462.5 C 167.833,464.5 163.167,466.5 158.5,468.5C 162.432,465.521 166.432,462.521 170.5,459.5C 178.585,458.879 179.252,456.712 172.5,453C 170.866,452.506 169.199,452.34 167.5,452.5C 172.338,449.58 177.338,446.914 182.5,444.5C 183.577,443.982 184.744,443.648 186,443.5C 193.241,445.549 194.075,449.049 188.5,454C 182.915,456.622 177.582,459.456 172.5,462.5 Z"/></g>
<g><path style="opacity:1" fill="#032b2c" d="M 392.5,426.5 C 390.856,428.481 389.19,430.481 387.5,432.5C 357.604,447.227 325.937,455.893 292.5,458.5C 293.5,457.833 294.5,457.167 295.5,456.5C 301.646,455.653 307.646,454.653 313.5,453.5C 341.556,449.294 367.889,440.294 392.5,426.5 Z"/></g>
<g><path style="opacity:1" fill="#144947" d="M 236.5,451.5 C 236.833,452.167 237.167,452.833 237.5,453.5C 237.5,454.833 237.5,456.167 237.5,457.5C 256.85,457.726 276.183,457.393 295.5,456.5C 294.5,457.167 293.5,457.833 292.5,458.5C 273.833,458.5 255.167,458.5 236.5,458.5C 236.413,454.759 234.413,452.759 230.5,452.5C 229.274,454.278 227.607,455.278 225.5,455.5C 228.051,451.057 231.717,449.723 236.5,451.5 Z"/></g>
<g><path style="opacity:1" fill="#e7e8e8" d="M 181.5,443.5 C 182.167,443.5 182.5,443.833 182.5,444.5C 177.338,446.914 172.338,449.58 167.5,452.5C 153.196,458.653 139.196,465.32 125.5,472.5C 125.034,470.799 125.034,469.299 125.5,468C 123.331,467.571 121.331,468.071 119.5,469.5C 119.167,469.333 118.833,469.167 118.5,469C 119.328,468.085 120.328,467.419 121.5,467C 118.949,466.998 116.949,466.164 115.5,464.5C 118.073,465.555 120.739,465.722 123.5,465C 143.215,458.708 162.549,451.541 181.5,443.5 Z"/></g>
<g><path style="opacity:1" fill="#072923" d="M 156.5,469.5 C 147.422,474.868 138.089,479.868 128.5,484.5C 129.457,481.832 131.457,480.332 134.5,480C 136.878,476.475 140.211,474.475 144.5,474C 147.418,469.946 151.418,468.446 156.5,469.5 Z"/></g>
<g><path style="opacity:1" fill="#45d2c4" d="M 189.5,468.5 C 188.054,467.387 186.387,467.22 184.5,468C 149.68,491.913 114.346,515.079 78.5,537.5C 78.1667,537.167 77.8333,536.833 77.5,536.5C 80.6425,530.382 83.6425,524.215 86.5,518C 86.1382,516.566 85.4715,515.399 84.5,514.5C 84.9175,513.778 85.5842,513.278 86.5,513C 85.6919,512.692 85.0253,512.192 84.5,511.5C 87.328,509.252 90.328,507.252 93.5,505.5C 94.3857,504.675 94.719,503.675 94.5,502.5C 96.1992,502.66 97.8659,502.494 99.5,502C 107.004,498.543 114.671,495.543 122.5,493C 124.833,490.667 127.167,488.333 129.5,486C 133.464,484.738 137.464,483.404 141.5,482C 144.996,478.414 149.329,476.08 154.5,475C 160.025,471.405 165.692,468.072 171.5,465C 172.252,464.329 172.586,463.496 172.5,462.5C 174.547,462.489 176.547,462.156 178.5,461.5C 183.452,457.508 189.119,455.174 195.5,454.5C 195.338,452.473 195.505,450.473 196,448.5C 196.458,452.083 197.958,455.083 200.5,457.5C 199.402,460.881 198.402,464.215 197.5,467.5C 201.439,467.178 202.272,468.511 200,471.5C 199.333,472.833 198.667,472.833 198,471.5C 196.513,472.253 196.346,473.086 197.5,474C 195.919,474.707 194.419,475.54 193,476.5C 192.503,473.854 192.336,471.187 192.5,468.5C 191.5,468.5 190.5,468.5 189.5,468.5 Z"/></g>
<g><path style="opacity:1" fill="#dbe5e3" d="M 186.5,480.5 C 187.167,481.167 187.833,481.833 188.5,482.5C 179.047,488.78 169.713,495.28 160.5,502C 158.081,503.509 157.081,505.675 157.5,508.5C 156.839,507.282 156.172,505.949 155.5,504.5C 154.274,503.637 152.94,503.637 151.5,504.5C 156.678,501.078 161.678,497.411 166.5,493.5C 173.184,489.141 179.851,484.807 186.5,480.5 Z"/></g>
<g><path style="opacity:1" fill="#5cc3b5" d="M 172.5,462.5 C 172.586,463.496 172.252,464.329 171.5,465C 165.692,468.072 160.025,471.405 154.5,475C 149.329,476.08 144.996,478.414 141.5,482C 137.464,483.404 133.464,484.738 129.5,486C 127.167,488.333 124.833,490.667 122.5,493C 114.671,495.543 107.004,498.543 99.5,502C 97.8659,502.494 96.1992,502.66 94.5,502.5C 94.719,503.675 94.3857,504.675 93.5,505.5C 90.328,507.252 87.328,509.252 84.5,511.5C 85.0253,512.192 85.6919,512.692 86.5,513C 85.5842,513.278 84.9175,513.778 84.5,514.5C 76.9107,517.529 69.0774,519.862 61,521.5C 59.3925,521.026 59.2258,520.359 60.5,519.5C 81.0211,509.074 101.354,498.407 121.5,487.5C 123.954,486.773 126.287,485.773 128.5,484.5C 138.089,479.868 147.422,474.868 156.5,469.5C 157.167,469.167 157.833,468.833 158.5,468.5C 163.167,466.5 167.833,464.5 172.5,462.5 Z"/></g>
<g><path style="opacity:1" fill="#151717" d="M 167.5,452.5 C 169.199,452.34 170.866,452.506 172.5,453C 179.252,456.712 178.585,458.879 170.5,459.5C 166.432,462.521 162.432,465.521 158.5,468.5C 157.833,468.833 157.167,469.167 156.5,469.5C 151.418,468.446 147.418,469.946 144.5,474C 140.211,474.475 136.878,476.475 134.5,480C 131.457,480.332 129.457,481.832 128.5,484.5C 126.287,485.773 123.954,486.773 121.5,487.5C 116.082,487.709 110.749,488.876 105.5,491C 103.51,492.751 101.177,493.751 98.5,494C 98.9574,494.414 99.2907,494.914 99.5,495.5C 97.8508,496.148 96.5175,497.148 95.5,498.5C 93.2573,499.474 90.924,499.808 88.5,499.5C 88.6399,501.124 87.9733,502.29 86.5,503C 86.8333,503.333 87.1667,503.667 87.5,504C 82.0051,506.091 76.6717,508.758 71.5,512C 69.5,512.333 67.5,512.667 65.5,513C 66.1667,513.333 66.8333,513.667 67.5,514C 64.1182,514.176 60.7848,514.676 57.5,515.5C 57.2907,516.086 56.9574,516.586 56.5,517C 56.3737,519.234 56.7071,521.568 57.5,524C 59.433,524.251 61.2663,524.751 63,525.5C 67.0664,522.935 71.2331,522.935 75.5,525.5C 76.4147,526.328 77.0814,527.328 77.5,528.5C 75.6265,531.724 75.2932,535.058 76.5,538.5C 77.6878,539.84 79.1878,540.507 81,540.5C 83.4823,539.365 85.9823,538.199 88.5,537C 92.4503,533.353 96.7837,530.187 101.5,527.5C 105.26,523.111 109.927,519.944 115.5,518C 118.725,514.807 122.225,511.974 126,509.5C 127.667,510.167 129.333,510.833 131,511.5C 134.86,506.973 139.027,502.806 143.5,499C 148.868,496.629 153.702,493.462 158,489.5C 159,490.833 160,492.167 161,493.5C 162.667,492.833 164.333,492.167 166,491.5C 166.464,492.094 166.631,492.761 166.5,493.5C 161.678,497.411 156.678,501.078 151.5,504.5C 127.704,521.24 103.037,536.74 77.5,551C 67.2772,552.104 63.4439,547.604 66,537.5C 67.5234,535.17 68.0234,532.836 67.5,530.5C 60.527,533.924 54.3604,532.924 49,527.5C 46.716,522.056 47.216,516.89 50.5,512C 75.5614,498.804 100.561,485.638 125.5,472.5C 139.196,465.32 153.196,458.653 167.5,452.5 Z"/></g>
<g><path style="opacity:1" fill="#0c211e" d="M 189.5,468.5 C 191.248,470.16 191.748,472.16 191,474.5C 189.668,476.66 188.168,478.66 186.5,480.5C 179.851,484.807 173.184,489.141 166.5,493.5C 166.631,492.761 166.464,492.094 166,491.5C 164.333,492.167 162.667,492.833 161,493.5C 160,492.167 159,490.833 158,489.5C 153.702,493.462 148.868,496.629 143.5,499C 139.027,502.806 134.86,506.973 131,511.5C 129.333,510.833 127.667,510.167 126,509.5C 122.225,511.974 118.725,514.807 115.5,518C 109.927,519.944 105.26,523.111 101.5,527.5C 96.7837,530.187 92.4503,533.353 88.5,537C 85.9823,538.199 83.4823,539.365 81,540.5C 79.1878,540.507 77.6878,539.84 76.5,538.5C 75.2932,535.058 75.6265,531.724 77.5,528.5C 77.0814,527.328 76.4147,526.328 75.5,525.5C 71.2331,522.935 67.0664,522.935 63,525.5C 61.2663,524.751 59.433,524.251 57.5,524C 56.7071,521.568 56.3737,519.234 56.5,517C 56.9574,516.586 57.2907,516.086 57.5,515.5C 60.7848,514.676 64.1182,514.176 67.5,514C 66.8333,513.667 66.1667,513.333 65.5,513C 67.5,512.667 69.5,512.333 71.5,512C 76.6717,508.758 82.0051,506.091 87.5,504C 87.1667,503.667 86.8333,503.333 86.5,503C 87.9733,502.29 88.6399,501.124 88.5,499.5C 90.924,499.808 93.2573,499.474 95.5,498.5C 96.5175,497.148 97.8508,496.148 99.5,495.5C 99.2907,494.914 98.9574,494.414 98.5,494C 101.177,493.751 103.51,492.751 105.5,491C 110.749,488.876 116.082,487.709 121.5,487.5C 101.354,498.407 81.0211,509.074 60.5,519.5C 59.2258,520.359 59.3925,521.026 61,521.5C 69.0774,519.862 76.9107,517.529 84.5,514.5C 85.4715,515.399 86.1382,516.566 86.5,518C 83.6425,524.215 80.6425,530.382 77.5,536.5C 77.8333,536.833 78.1667,537.167 78.5,537.5C 114.346,515.079 149.68,491.913 184.5,468C 186.387,467.22 188.054,467.387 189.5,468.5 Z"/></g>
</svg>
